<svg width="110" height="109" viewBox="0 0 110 109" fill="none" xmlns="http://www.w3.org/2000/svg">
<path d="M15.4776 20.0474C16.5904 20.0474 17.4925 19.1428 17.4925 18.0269C17.4925 16.911 16.5904 16.0063 15.4776 16.0063C14.3648 16.0063 13.4626 16.911 13.4626 18.0269C13.4626 19.1428 14.3648 20.0474 15.4776 20.0474Z" fill="#EAEEF9"/>
<path d="M6.37016 25.139C7.12688 25.139 7.74032 24.5239 7.74032 23.7651C7.74032 23.0063 7.12688 22.3911 6.37016 22.3911C5.61344 22.3911 5 23.0063 5 23.7651C5 24.5239 5.61344 25.139 6.37016 25.139Z" fill="#EAEEF9"/>
<path d="M53.7616 88.4221C75.8845 88.4221 93.8187 70.4382 93.8187 48.2541C93.8187 26.0699 75.8845 8.08606 53.7616 8.08606C31.6387 8.08606 13.7046 26.0699 13.7046 48.2541C13.7046 70.4382 31.6387 88.4221 53.7616 88.4221Z" fill="#EAEEF9"/>
<g filter="url(#filter0_d)">
<path d="M90.7562 36.8582V72.4194C90.7562 72.5811 90.7562 72.6619 90.7562 72.8235C90.6756 74.8441 89.7085 76.6221 88.3383 77.9153C87.0487 79.0467 85.4368 79.6933 83.6636 79.6933H26.5199C25.3109 79.6933 24.1019 79.37 23.0542 78.8043C22.5706 78.5618 22.1676 78.2385 21.7646 77.9153C20.9586 77.1879 20.3139 76.2988 19.9109 75.329C19.5885 74.6016 19.4273 73.7934 19.3467 72.9852V36.8582C19.3467 36.8582 22.3288 34.3528 26.6005 30.7966C31.0333 27.0789 36.8364 22.2296 41.9946 17.9461C44.9767 15.4407 44.6544 15.764 49.1678 11.9654C52.6335 9.05581 57.6306 9.05581 61.0963 11.9654C61.9829 12.6928 62.95 13.501 63.8366 14.2284C65.6903 15.764 67.7859 17.542 69.962 19.3201C74.5561 23.1995 79.5532 27.4022 83.5024 30.7158C87.5323 34.0295 90.4338 36.5349 90.7562 36.8582Z" fill="#CAD1E0"/>
</g>
<path d="M83.4219 30.7159V43.4856L70.9293 50.9211L67.2218 53.1841L59.4038 57.8717L55.6963 60.1347L54.165 61.0237L52.7142 60.0539L49.1679 57.7909L41.7529 53.1033L38.2066 50.9211L26.6812 43.6472V30.7159C31.114 26.9981 36.9171 22.1489 42.0753 17.8654L69.8815 19.3201C74.4756 23.1995 79.4726 27.4022 83.4219 30.7159Z" fill="#B2B9CA"/>
<path d="M80.9234 20.5324V42.9198L69.5591 49.7088L66.174 51.7293L59.0008 56.0936L55.6157 58.1141L54.165 59.0032L52.8754 58.1141L49.6515 56.0936L42.8813 51.8101L39.6574 49.7896L29.1797 43.1623V20.5324C29.1797 18.1886 31.114 16.2489 33.4514 16.2489H76.7323C79.0697 16.2489 80.9234 18.1886 80.9234 20.5324Z" fill="white"/>
<path d="M70.6069 34.676H40.0604C39.5768 34.676 39.1738 34.2719 39.1738 33.7062C39.1738 33.1404 39.5768 32.7363 40.0604 32.7363H70.6069C71.0905 32.7363 71.4935 33.1404 71.4935 33.7062C71.4935 34.1911 71.0905 34.676 70.6069 34.676Z" fill="#E7EBF2"/>
<path d="M70.6069 40.6569H40.0604C39.5768 40.6569 39.1738 40.2528 39.1738 39.687C39.1738 39.1213 39.5768 38.7172 40.0604 38.7172H70.6069C71.0905 38.7172 71.4935 39.1213 71.4935 39.687C71.4935 40.2528 71.0905 40.6569 70.6069 40.6569Z" fill="#E7EBF2"/>
<path d="M70.6069 46.7184H40.0604C39.5768 46.7184 39.1738 46.3143 39.1738 45.7485C39.1738 45.1828 39.5768 44.7787 40.0604 44.7787H70.6069C71.0905 44.7787 71.4935 45.1828 71.4935 45.7485C71.4935 46.3143 71.0905 46.7184 70.6069 46.7184Z" fill="#E7EBF2"/>
<path d="M68.5919 50.8402L65.368 52.7799H43.123L40.0603 50.8402C40.0603 50.8402 40.0603 50.8402 40.1409 50.8402H68.5919Z" fill="#E7EBF2"/>
<path d="M58.5171 56.821L55.2932 58.7607H52.6335L49.5708 56.821H58.5171Z" fill="#E7EBF2"/>
<path d="M63.9978 27.7255H46.6693C46.1857 27.7255 45.7827 27.3214 45.7827 26.7556C45.7827 26.1899 46.1857 25.7858 46.6693 25.7858H63.9978C64.4814 25.7858 64.8844 26.1899 64.8844 26.7556C64.8844 27.3214 64.4814 27.7255 63.9978 27.7255Z" fill="#E7EBF2"/>
<path d="M19.6689 36.6967L53.923 38.9596L90.1113 36.6967L88.7412 43.2431C88.7412 43.2431 54.6483 61.1046 54.8901 61.1046C55.1319 61.1046 19.6689 39.9295 19.6689 39.9295V36.6967Z" fill="url(#paint0_linear)"/>
<path d="M90.7562 36.8582V72.7426C90.6756 74.7632 89.7085 76.5412 88.3383 77.8344C87.0487 78.9659 85.4368 79.6124 83.6636 79.6124H26.5199C25.3109 79.6124 24.1019 79.2891 23.0542 78.7234C22.5706 78.4809 22.1676 78.1577 21.7646 77.8344C20.9586 77.107 20.3139 76.2179 19.9109 75.2481C19.5885 74.5207 19.4273 73.7125 19.3467 72.9043V72.8235V36.8582L51.2634 56.9017L54.0037 58.599L54.9709 58.0332L55.8574 57.4675L90.7562 36.8582Z" fill="#738DFF"/>
<path d="M88.2577 77.7536C86.9681 78.885 85.3562 79.5316 83.583 79.5316H26.5199C25.3109 79.5316 24.1019 79.2083 23.0542 78.6426C22.5706 78.4001 22.1676 78.0768 21.7646 77.7536C20.9586 77.0262 20.3139 76.1371 19.9109 75.1673C19.5885 74.4399 19.4273 73.6317 19.3467 72.8235V72.7426V36.8582L23.0542 39.1211L54.9709 58.1141L55.8574 58.6798L55.938 58.7606L84.5502 75.733L88.2577 77.7536Z" fill="#E6ECF5"/>
<path d="M55.9381 57.4676V59.973L23.0542 78.6427C22.5706 78.4002 22.1676 78.0769 21.7646 77.7536C20.9587 77.0262 20.3139 76.1372 19.9109 75.1674L51.9082 56.1744L54.6485 57.8717L54.9709 57.9525L55.9381 57.4676Z" fill="url(#paint1_linear)"/>
<path d="M19.3467 36.8582L55.0515 58.0332" stroke="white" stroke-width="0.432877" stroke-miterlimit="10"/>
<path d="M90.7563 36.8582V72.7426C90.6757 74.7632 89.7085 76.5412 88.3383 77.8344C87.0488 78.9659 85.4368 79.6124 83.6637 79.6124H26.5199C25.3109 79.6124 24.102 79.2891 23.0542 78.7234C22.5706 78.4809 22.1676 78.1577 21.7646 77.8344L25.3915 75.6522L54.0037 58.6798L54.9709 58.1141L55.8575 57.5483L86.8876 39.1211L90.7563 36.8582Z" fill="white"/>
<path d="M90.7563 36.8582L55.9381 57.4675L55.0515 58.0332L54.0843 58.599L21.7646 77.7536" fill="white"/>
<path d="M90.7563 36.8582L55.9381 57.4675L55.0515 58.0332L54.0843 58.599L21.7646 77.7536" stroke="white" stroke-width="0.432877" stroke-miterlimit="10"/>
<path d="M82.1324 61.9127H63.192C62.7084 61.9127 62.386 61.5086 62.386 61.1045C62.386 60.7004 62.789 60.2963 63.192 60.2963H82.1324C82.616 60.2963 82.9384 60.7004 82.9384 61.1045C82.9384 61.5086 82.616 61.9127 82.1324 61.9127Z" fill="#E7EBF2"/>
<path d="M82.1324 67.4085H63.192C62.7084 67.4085 62.386 67.0044 62.386 66.6003C62.386 66.1962 62.789 65.7921 63.192 65.7921H82.1324C82.616 65.7921 82.9384 66.1962 82.9384 66.6003C82.9384 67.0044 82.616 67.4085 82.1324 67.4085Z" fill="#E7EBF2"/>
<path opacity="0.3" d="M86.9681 39.0405V42.7582L90.6756 40.8185V36.7775L86.9681 39.0405ZM86.9681 57.5485V63.61L90.6756 61.6703V55.6087L86.9681 57.5485ZM86.0816 78.8044L84.9532 79.3701C86.1622 79.1276 87.2905 78.5619 88.2577 77.7537C88.2577 77.7537 88.2577 77.7537 88.3383 77.7537C88.4189 77.7537 88.4189 77.6729 88.4995 77.6729L86.0816 78.8044ZM19.3467 36.8583V42.5158L23.0542 40.5761V39.0405L19.3467 36.8583ZM19.3467 57.306V63.3676L23.0542 61.4279V55.3663L19.3467 57.306ZM26.5199 75.814C26.1975 75.814 25.7945 75.7332 25.4721 75.6523C25.3109 75.5715 25.0691 75.4907 24.9079 75.4099C24.9079 75.4099 24.9079 75.4099 24.8273 75.4099L21.2004 77.2688C21.3616 77.5112 21.6034 77.6729 21.8452 77.8345C22.2482 78.1578 22.6512 78.4811 23.1348 78.7235C23.4572 78.8852 23.8601 79.0468 24.1825 79.2085L31.1945 75.8948H26.5199V75.814ZM58.356 75.814L50.538 79.5317H59.0007L66.8187 75.814H58.356Z" fill="#EE4191"/>
<path d="M86.0815 78.8042L88.4189 77.5919C88.3383 77.6727 88.3383 77.6727 88.2577 77.6727C88.2577 77.6727 88.2577 77.6727 88.1771 77.6727L86.0815 78.8042Z" fill="#526DFF"/>
<path opacity="0.3" d="M86.9683 67.9744V72.662C86.9683 73.2277 86.7265 73.7935 86.4041 74.2784C86.3235 74.3592 86.3235 74.44 86.2429 74.44L90.6758 72.177V66.1155L86.9683 67.9744Z" fill="#7B97FF"/>
<path opacity="0.3" d="M19.3467 67.651V72.6619V72.7427C19.3467 73.066 19.4273 73.3085 19.4273 73.6318L23.0542 71.7729V65.7113L19.3467 67.651Z" fill="#7B97FF"/>
<path opacity="0.3" d="M19.3467 46.8801V52.9417L23.0542 51.002V44.9404L19.3467 46.8801Z" fill="#7B97FF"/>
<path opacity="0.3" d="M40.4632 75.814L32.6453 79.5317H41.108L49.0066 75.814H40.4632Z" fill="#7B97FF"/>
<path opacity="0.3" d="M76.2487 75.814L68.3501 79.5317H75.2009L83.0995 75.814H76.2487Z" fill="#7B97FF"/>
<path opacity="0.3" d="M86.9683 47.1224V53.184L90.7564 51.3251V45.2635L86.9683 47.1224Z" fill="#7B97FF"/>
<g filter="url(#filter1_d)">
<path d="M102.765 75.1673C102.765 75.9755 102.684 76.7029 102.604 77.5111C101.798 82.8453 98.1709 87.2096 93.2544 89.0685C91.5619 89.7151 89.7887 90.0384 87.935 90.0384C82.7767 90.0384 78.1826 87.3713 75.5229 83.3302C73.9916 80.9864 73.105 78.1577 73.105 75.1673C73.105 66.9236 79.714 60.2963 87.935 60.2963C96.0753 60.2963 102.765 67.0044 102.765 75.1673Z" fill="url(#paint2_linear)"/>
</g>
<path d="M102.604 77.5112C101.798 82.8454 98.1709 87.2097 93.2544 89.0686L85.1141 80.9057L85.1947 80.5824L80.6006 75.9756L90.7559 72.0962L93.4156 68.2168L102.604 77.5112Z" fill="url(#paint3_linear)"/>
<path d="M84.9151 79.7256C84.9151 79.3215 85.0763 78.8366 85.3181 78.5133C86.7689 76.7352 88.139 75.038 89.5092 73.2599C89.9122 72.775 89.4286 72.5325 89.1062 72.775C88.6226 73.1791 84.4315 76.7352 83.8674 77.301C83.7868 77.3818 83.6256 77.3818 83.545 77.3818C82.6584 77.0585 81.8524 76.7352 80.9659 76.4119C80.5629 76.3311 80.3211 75.927 80.4017 75.5229C80.4823 75.2804 80.6435 75.038 80.8853 74.9571C81.7718 74.4722 91.6853 68.8956 92.5719 68.3298C92.8137 68.1682 93.0555 68.1682 93.2973 68.249C93.5391 68.4107 93.6197 68.6531 93.5391 68.8956C93.3779 70.9161 92.7331 77.4626 92.4913 79.5639C92.4107 80.1297 92.1689 80.453 91.6854 80.3722C91.6048 80.3722 91.4436 80.3721 91.363 80.2913C90.3152 79.8872 89.1868 79.4831 88.139 79.079C87.9778 78.9982 87.8167 78.9982 87.7361 79.1598C85.9629 80.9379 85.8017 80.9379 85.5599 81.0187C85.1569 81.0995 84.8345 80.8571 84.7539 80.5338C84.7539 80.453 84.7539 80.453 84.7539 80.3722C84.9151 80.2105 84.9151 79.968 84.9151 79.7256Z" fill="url(#paint4_linear)"/>
<path d="M55.2126 56.821C48.4424 51.406 44.8961 42.1924 46.1857 33.6254C47.6365 23.846 54.4067 21.9872 58.1142 23.6036C60.6127 24.7351 62.144 28.1295 60.8545 30.7158C58.5171 35.3226 49.2484 33.3021 47.4753 25.6241C46.8305 22.7954 47.4753 19.6433 49.1678 17.3804C51.9887 13.501 57.147 12.2078 61.8216 11.3996C62.8694 11.238 63.9172 11.0763 65.0456 10.9147C67.5441 10.5914 70.6068 10.1873 73.9919 9.86401" stroke="#84A1FF" stroke-width="1.73151" stroke-miterlimit="10" stroke-linecap="round" stroke-linejoin="round"/>
<path d="M80.7624 11.3995L77.6997 12.8543C77.1355 13.0967 76.5713 12.6926 76.5713 12.0461L77.1355 5.90369" fill="#667FFF"/>
<path d="M108.891 2.26683L106.876 3.39832L85.7594 15.3598C84.7922 15.9256 83.5833 15.6023 82.9385 14.7133L78.1026 7.52019L77.1355 6.06541L74.4757 2.02436C73.9115 1.13533 74.5563 -0.0769816 75.6041 0.00383932L105.103 2.10518L108.891 2.26683Z" fill="#84A1FF"/>
<path d="M108.891 2.26675L106.876 3.39825L78.183 7.43929L77.1353 5.98452L105.183 2.02429L108.891 2.26675Z" fill="#667FFF"/>
<path d="M95.9948 31.2007C97.6863 31.2007 99.0576 29.8257 99.0576 28.1295C99.0576 26.4334 97.6863 25.0583 95.9948 25.0583C94.3034 25.0583 92.9321 26.4334 92.9321 28.1295C92.9321 29.8257 94.3034 31.2007 95.9948 31.2007Z" fill="#EAEEF9"/>
<path d="M92.4487 18.1886C93.1609 18.1886 93.7383 17.6096 93.7383 16.8954C93.7383 16.1813 93.1609 15.6023 92.4487 15.6023C91.7365 15.6023 91.1592 16.1813 91.1592 16.8954C91.1592 17.6096 91.7365 18.1886 92.4487 18.1886Z" fill="#EAEEF9"/>
<path d="M97.6069 60.2964C98.3192 60.2964 98.8965 59.7174 98.8965 59.0032C98.8965 58.289 98.3192 57.7101 97.6069 57.7101C96.8947 57.7101 96.3174 58.289 96.3174 59.0032C96.3174 59.7174 96.8947 60.2964 97.6069 60.2964Z" fill="#EAEEF9"/>
<path d="M25.4719 15.6831C25.3107 15.6831 25.0689 15.6023 24.9077 15.4406C24.8271 15.3598 24.7465 15.1173 24.9077 14.8749C24.9883 14.7941 25.6331 13.905 26.439 12.7735C27.0838 11.8845 27.8898 10.753 28.5346 9.78316C29.1794 8.89413 29.1794 7.68182 28.5346 6.79278C27.9704 6.0654 27.0838 5.66129 26.1972 5.82293C25.8749 5.90375 25.4719 5.98458 25.2301 6.22704C24.9883 6.38868 24.8271 6.63114 24.6659 6.87361C24.1017 7.68182 23.4569 8.65167 22.7315 9.5407C22.0868 10.4297 21.5226 11.2379 20.9584 11.9653C20.5554 12.5311 20.4748 13.0968 20.7972 13.5817C21.1196 14.0667 21.7644 14.39 22.3286 14.3091C22.7315 14.2283 23.0539 14.0667 23.2957 13.6626C23.6987 13.0968 26.439 9.21741 26.5196 9.13659C26.6808 8.89413 26.6002 8.57085 26.3584 8.4092C26.2778 8.4092 26.2778 8.32838 26.1972 8.32838C26.1167 8.32838 26.1167 8.32838 26.0361 8.32838C25.8749 8.32838 25.7943 8.49002 25.7137 8.57084L25.6331 8.73249C23.9405 11.1571 23.6181 11.5612 23.6181 11.5612C23.5375 11.642 23.4569 11.7229 23.2957 11.7229C23.1345 11.7229 22.9733 11.7229 22.8927 11.642C22.651 11.4804 22.5704 11.1571 22.7315 10.9147L22.8121 10.8338C23.4569 9.9448 24.3435 8.65167 24.9883 7.76264C25.1495 7.52017 25.4719 7.35853 25.7943 7.27771C26.2778 7.19689 26.842 7.35853 27.0838 7.68182C27.5674 8.24756 27.7286 8.81331 27.4868 9.45988C27.4868 9.5407 27.4062 9.62152 27.3256 9.70234C27.0838 10.0256 26.842 10.4297 26.5196 10.8338C25.7137 12.0461 24.7465 13.4201 23.9405 14.39C23.5375 14.9557 23.0539 15.279 22.4092 15.3598C22.0868 15.4406 21.6838 15.4406 21.3614 15.279C20.7166 15.1173 20.1524 14.7941 19.7494 14.2283C19.3464 13.6626 19.2658 13.016 19.3464 12.3694C19.427 12.0461 19.5882 11.642 19.7494 11.3996C20.1524 10.8338 20.5554 10.2681 20.9584 9.70234L21.442 9.05577L21.5226 8.97495L22.0868 8.16674C22.5704 7.43935 23.1345 6.63114 23.5375 6.0654C24.3435 5.25719 25.1495 4.85308 26.0361 4.69144C26.7614 4.61062 27.4062 4.69144 28.051 4.9339C29.8241 5.82293 30.6301 8.0051 29.7435 9.86398C29.663 10.0256 29.5824 10.1873 29.4212 10.3489C28.6152 11.4804 27.5674 12.9352 26.6808 14.2283L25.8749 15.3598C25.7943 15.5214 25.6331 15.6023 25.4719 15.6831Z" fill="#F45CA4"/>
<path d="M108.327 35.1609C108.327 35.3226 108.165 35.4842 108.004 35.565C107.924 35.565 107.682 35.6459 107.521 35.4034C107.44 35.3226 106.876 34.5952 106.07 33.6253C105.425 32.8171 104.7 31.8473 103.974 31.0391C103.329 30.2309 102.282 29.9884 101.395 30.3117C100.589 30.5542 100.025 31.2815 99.9444 32.1706C99.9444 32.4939 99.9444 32.8171 100.025 33.1404C100.106 33.3829 100.267 33.6253 100.428 33.787C100.992 34.5144 101.637 35.3226 102.282 36.1308C102.846 36.8582 103.491 37.5856 103.974 38.2321C104.377 38.7171 104.861 38.8787 105.344 38.7171C105.828 38.5554 106.231 38.0705 106.312 37.5048C106.312 37.1815 106.231 36.7774 105.989 36.5349C105.586 36.05 102.926 32.7363 102.846 32.5747C102.685 32.413 102.362 32.3322 102.201 32.4939C102.12 32.4939 102.12 32.5747 102.12 32.6555C102.12 32.6555 102.12 32.7363 102.04 32.8171C102.04 32.9788 102.12 33.0596 102.201 33.1404L102.282 33.2212C103.974 35.3226 104.216 35.6459 104.297 35.6459C104.377 35.7267 104.377 35.8883 104.377 35.9692C104.377 36.1308 104.297 36.2116 104.216 36.2924C103.974 36.4541 103.732 36.4541 103.571 36.2116L103.491 36.1308C102.846 35.4034 101.959 34.2719 101.395 33.4637C101.234 33.2212 101.153 32.898 101.153 32.6555C101.234 32.1706 101.476 31.7665 101.879 31.6048C102.523 31.2815 103.007 31.3624 103.491 31.6856C103.571 31.7665 103.652 31.7665 103.652 31.8473C103.894 32.1706 104.135 32.4939 104.377 32.8171C105.183 33.8678 106.15 34.9993 106.876 35.8883C107.279 36.3733 107.44 36.939 107.359 37.4239C107.359 37.7472 107.198 38.0705 107.037 38.3938C106.795 38.9595 106.312 39.3636 105.747 39.5253C105.183 39.6869 104.538 39.6869 104.055 39.3636C103.732 39.202 103.491 38.9595 103.329 38.7171C102.926 38.2321 102.523 37.7472 102.12 37.2623L101.718 36.6965L101.637 36.6157L101.073 35.8883C100.589 35.2418 100.025 34.5952 99.622 34.1103C99.1384 33.4637 98.8966 32.6555 98.9772 31.8473C99.0578 31.2007 99.2996 30.635 99.7026 30.15C100.912 28.7761 103.007 28.6953 104.377 29.9076C104.538 29.9884 104.619 30.15 104.78 30.3117C105.586 31.2815 106.553 32.4939 107.44 33.6253L108.246 34.5952C108.327 34.8377 108.407 34.9993 108.327 35.1609Z" fill="#84A1FF"/>
<defs>
<filter id="filter0_d" x="0.300104" y="0.259915" width="109.503" height="108.003" filterUnits="userSpaceOnUse" color-interpolation-filters="sRGB">
<feFlood flood-opacity="0" result="BackgroundImageFix"/>
<feColorMatrix in="SourceAlpha" type="matrix" values="0 0 0 0 0 0 0 0 0 0 0 0 0 0 0 0 0 0 127 0"/>
<feOffset dy="9.52329"/>
<feGaussianBlur stdDeviation="9.52329"/>
<feColorMatrix type="matrix" values="0 0 0 0 0.397708 0 0 0 0 0.47749 0 0 0 0 0.575 0 0 0 0.18 0"/>
<feBlend mode="normal" in2="BackgroundImageFix" result="effect1_dropShadow"/>
<feBlend mode="normal" in="SourceGraphic" in2="effect1_dropShadow" result="shape"/>
</filter>
<filter id="filter1_d" x="66.179" y="57.699" width="43.512" height="43.5942" filterUnits="userSpaceOnUse" color-interpolation-filters="sRGB">
<feFlood flood-opacity="0" result="BackgroundImageFix"/>
<feColorMatrix in="SourceAlpha" type="matrix" values="0 0 0 0 0 0 0 0 0 0 0 0 0 0 0 0 0 0 127 0"/>
<feOffset dy="4.32877"/>
<feGaussianBlur stdDeviation="3.46301"/>
<feColorMatrix type="matrix" values="0 0 0 0 0.968627 0 0 0 0 0.254902 0 0 0 0 0.564706 0 0 0 0.3 0"/>
<feBlend mode="normal" in2="BackgroundImageFix" result="effect1_dropShadow"/>
<feBlend mode="normal" in="SourceGraphic" in2="effect1_dropShadow" result="shape"/>
</filter>
<linearGradient id="paint0_linear" x1="54.8784" y1="68.7848" x2="54.8784" y2="38.2938" gradientUnits="userSpaceOnUse">
<stop offset="0.00289017" stop-color="#CAD1E0"/>
<stop offset="1" stop-color="#E6ECF5" stop-opacity="0"/>
</linearGradient>
<linearGradient id="paint1_linear" x1="39.9791" y1="69.4762" x2="37.1639" y2="65.3788" gradientUnits="userSpaceOnUse">
<stop offset="0.00289017" stop-color="#CAD1E0"/>
<stop offset="1" stop-color="#E6ECF5" stop-opacity="0"/>
</linearGradient>
<linearGradient id="paint2_linear" x1="87.9095" y1="58.3073" x2="87.9095" y2="90.9705" gradientUnits="userSpaceOnUse">
<stop stop-color="#FF66A9"/>
<stop offset="1" stop-color="#F53689"/>
</linearGradient>
<linearGradient id="paint3_linear" x1="88.5065" y1="73.8439" x2="97.568" y2="82.8804" gradientUnits="userSpaceOnUse">
<stop stop-color="#E81778"/>
<stop offset="1" stop-color="#E01F79" stop-opacity="0"/>
</linearGradient>
<linearGradient id="paint4_linear" x1="89.4945" y1="76.1141" x2="86.541" y2="71.4235" gradientUnits="userSpaceOnUse">
<stop offset="0.0113208" stop-color="#FFC9E3"/>
<stop offset="1" stop-color="white"/>
</linearGradient>
</defs>
</svg>
