<svg width="122" height="107" viewBox="0 0 122 107" fill="none" xmlns="http://www.w3.org/2000/svg">
<path d="M62.1276 92.0856C86.0451 92.0856 105.434 72.6793 105.434 48.7405C105.434 24.8017 86.0451 5.39539 62.1276 5.39539C38.2102 5.39539 18.8213 24.8017 18.8213 48.7405C18.8213 72.6793 38.2102 92.0856 62.1276 92.0856Z" fill="#EFF3FF"/>
<path d="M96.8946 10.7473C98.7233 10.7473 100.206 9.26353 100.206 7.43319C100.206 5.60286 98.7233 4.11908 96.8946 4.11908C95.0659 4.11908 93.5835 5.60286 93.5835 7.43319C93.5835 9.26353 95.0659 10.7473 96.8946 10.7473Z" fill="#EAEEF9"/>
<path d="M22.6552 18.9454C23.8583 18.9454 24.8336 17.9692 24.8336 16.7651C24.8336 15.5609 23.8583 14.5847 22.6552 14.5847C21.4521 14.5847 20.4768 15.5609 20.4768 16.7651C20.4768 17.9692 21.4521 18.9454 22.6552 18.9454Z" fill="#EAEEF9"/>
<path d="M12.8087 24.527C13.6268 24.527 14.29 23.8632 14.29 23.0444C14.29 22.2256 13.6268 21.5618 12.8087 21.5618C11.9906 21.5618 11.3274 22.2256 11.3274 23.0444C11.3274 23.8632 11.9906 24.527 12.8087 24.527Z" fill="url(#paint0_linear)"/>
<path d="M83.1273 6.79083C83.8973 6.79083 84.5215 6.16608 84.5215 5.39542C84.5215 4.62475 83.8973 4 83.1273 4C82.3573 4 81.7332 4.62475 81.7332 5.39542C81.7332 6.16608 82.3573 6.79083 83.1273 6.79083Z" fill="url(#paint1_linear)"/>
<path d="M58.4677 92.0304C58.4677 96.1294 56.725 99.7924 53.9367 102.409C53.1524 103.106 52.3682 103.717 51.4097 104.24C49.3185 105.461 46.8787 106.159 44.2646 106.159C41.6505 106.159 39.2108 105.461 37.1195 104.24C36.771 104.066 36.5096 103.891 36.161 103.63C32.5013 101.101 30.0615 96.8271 30.0615 92.0304C30.0615 84.1811 36.4224 77.9018 44.1775 77.9018C52.1068 77.8146 58.4677 84.1811 58.4677 92.0304Z" fill="#DCE2F0"/>
<path d="M41.3899 95.1702C41.5641 95.3447 41.7384 95.6063 41.9998 95.7807C42.1741 95.9552 42.3484 96.0424 42.5226 96.2168C42.6098 96.304 42.784 96.3912 42.8712 96.4784C42.8712 96.4784 42.9583 96.4784 42.9583 96.5657L43.0454 96.6529V97.8739C43.0454 97.8739 43.0454 97.8739 42.9583 97.7866C42.8712 97.6994 42.6969 97.6122 42.6098 97.525C42.4355 97.4378 42.2612 97.2634 42.0869 97.1762C41.9998 97.1762 41.9998 97.0889 41.9127 97.0889C41.3027 96.7401 40.7799 96.3912 40.7799 95.9552C40.8671 95.7807 41.0413 95.5191 41.3899 95.1702ZM53.7631 101.973C53.2403 100.839 52.2818 99.7053 51.0619 99.0948C50.452 98.8332 49.7549 98.5716 49.0578 98.5716C48.8835 98.5716 48.6221 98.5716 48.4478 98.5716C48.3607 98.5716 48.2736 98.5716 48.1864 98.5716C47.2279 98.4844 47.1408 98.3099 47.1408 98.3099V96.304C47.7508 95.7807 48.3607 95.1702 48.8835 94.5597C49.3192 93.9493 49.6677 93.2515 49.842 92.3794C50.6262 92.205 51.149 91.5073 51.0619 90.6351C51.0619 90.2863 50.8005 89.9374 50.8005 89.5886C50.8005 89.4141 50.8005 89.2397 50.8005 89.0653C50.8005 88.9781 50.8005 88.8037 50.8005 88.7164C50.8005 88.6292 50.8005 88.4548 50.8005 88.3676C50.7134 87.7571 50.5391 87.1466 50.1906 86.4489C49.1449 84.5302 47.2279 83.3092 44.9624 83.3092C44.5267 83.3092 44.0911 83.3964 43.6554 83.4836C42.8712 83.6581 42.0869 84.0069 41.477 84.5302C41.3899 84.6174 41.2156 84.7046 41.1285 84.879L41.0413 84.9663C40.3442 85.664 39.7343 86.4489 39.4729 87.4082C39.1243 88.3676 39.1243 89.3269 39.2115 90.2863C39.2115 90.2863 39.2115 90.2863 39.2115 90.3735V90.4607C39.2115 90.6351 39.2986 90.6351 39.2115 90.7224C39.2115 90.8096 39.1243 90.8096 39.1243 90.8968C38.9501 91.1584 38.8629 91.5073 39.0372 92.0306C39.3857 92.9027 39.9086 92.8155 40.5185 93.2515C40.5185 93.2515 40.4314 93.2515 40.4314 93.3388L39.8214 93.5132C37.0331 94.3853 36.0746 96.7401 37.2945 98.2227C37.7302 98.746 38.4273 99.1821 39.4729 99.4437C39.2115 99.4437 38.9501 99.6181 38.7758 99.7926C37.5559 100.752 36.7717 102.235 36.5974 103.63C36.5974 103.717 36.5974 103.804 36.5974 103.892C36.946 104.066 37.2074 104.328 37.5559 104.502H51.4104C52.2818 103.979 53.1532 103.368 53.9374 102.671C53.8502 102.235 53.8502 102.06 53.7631 101.973Z" fill="white"/>
<path d="M53.9368 102.409C53.1526 103.106 52.3683 103.717 51.4098 104.24C49.3186 105.461 46.8788 106.159 44.2647 106.159C41.6507 106.159 39.2109 105.461 37.1196 104.24C36.7711 104.066 36.5097 103.891 36.1611 103.63C36.1611 103.542 36.1611 103.455 36.1611 103.368C36.3354 101.973 37.1196 100.49 38.3395 99.5307C38.5138 99.3562 38.7752 99.269 39.0366 99.1818C37.991 99.0074 37.2939 98.5713 36.8582 97.9608H40.1694C41.1279 99.269 42.6092 100.054 44.3519 100.054C45.8332 100.054 47.1402 99.4435 48.0987 98.4841C48.1858 98.4841 48.273 98.4841 48.3601 98.4841C48.5344 98.4841 48.7086 98.4841 48.9701 98.4841C49.6671 98.4841 50.3642 98.6585 50.9742 99.0074C52.1941 99.6179 53.0654 100.664 53.6754 101.885C53.8496 102.06 53.8496 102.234 53.9368 102.409Z" fill="url(#paint2_linear)"/>
<path d="M47.2273 96.3037V98.1352L41.7378 98.3096L41.9992 97.0886C42.0863 97.0886 42.0863 97.1758 42.1735 97.1758C42.3477 97.2631 42.522 97.4375 42.6963 97.5247C42.7834 97.6119 42.8706 97.6991 43.0448 97.7863C43.0448 97.7863 43.132 97.7863 43.132 97.8736V96.6526L43.0448 96.5653C44.0033 97.0886 45.3103 97.4375 47.2273 96.3037Z" fill="url(#paint3_linear)"/>
<path d="M50.8 88.7162C49.7544 89.0651 48.5345 89.2395 47.4017 89.1523C45.5719 88.9779 43.8291 88.2802 42.435 87.0592C41.9993 88.3674 40.8665 89.3267 39.5595 89.9372C39.3852 90.0244 39.211 90.1117 39.0367 90.1117C39.0367 90.1117 39.0367 90.1117 39.0367 90.0244C38.9496 89.0651 38.9496 88.1058 39.2981 87.1464C39.5595 86.1871 40.1695 85.4021 40.8665 84.7044L40.9537 84.6172C41.0408 84.53 41.2151 84.4428 41.3022 84.2684C41.9122 83.7451 42.6964 83.3962 43.4806 83.2218C43.9163 83.1346 44.352 83.0474 44.7876 83.0474C47.0532 83.0474 49.0573 84.2684 50.0158 86.187C50.3643 86.8848 50.5386 87.5825 50.6257 88.1057C50.8 88.4546 50.8 88.629 50.8 88.7162Z" fill="#1C3754"/>
<path d="M43.8292 101.624C43.3064 102.234 42.4351 102.234 41.6508 102.234C42.4351 101.449 41.9994 98.9202 39.211 99.1818C35.3771 98.4841 35.7256 94.4723 39.5596 93.2513L40.1695 93.0769L40.2567 93.1641C40.5181 93.949 40.9537 94.6467 41.3894 95.17C39.821 96.4782 41.9994 96.8271 43.045 97.8736C43.9164 98.3969 44.7006 100.577 43.8292 101.624Z" fill="#1C3754"/>
<path d="M58.4677 92.0304C58.4677 96.1294 56.725 99.7924 53.9367 102.409C53.1524 103.106 52.3682 103.717 51.4097 104.24C49.3185 105.461 46.8787 106.159 44.2646 106.159C41.6505 106.159 39.2108 105.461 37.1195 104.24C36.771 104.066 36.5096 103.891 36.161 103.63C32.5013 101.101 30.0615 96.8271 30.0615 92.0304C30.0615 84.1811 36.4224 77.9018 44.1775 77.9018C52.1068 77.8146 58.4677 84.1811 58.4677 92.0304Z" stroke="white" stroke-width="1.42278" stroke-miterlimit="10" stroke-linecap="round" stroke-linejoin="round"/>
<path d="M97.6787 57.3194C97.6787 61.244 96.1102 64.7326 93.6704 67.349C93.4962 67.6106 93.2348 67.785 92.9734 67.9595C90.3593 70.4014 86.8739 71.8841 83.0399 71.8841C79.9902 71.8841 77.1147 70.9247 74.762 69.2677C74.065 68.8316 73.455 68.2211 72.8451 67.6978C70.1439 65.0814 68.4883 61.4184 68.4883 57.3194C68.4883 49.2958 75.0234 42.7548 83.0399 42.7548C91.1435 42.7548 97.6787 49.2958 97.6787 57.3194Z" fill="#E9F0F8"/>
<path d="M97.6787 57.3194C97.6787 61.5928 95.8488 65.343 92.9734 68.0466C90.3593 70.4886 86.8739 71.9712 83.0399 71.9712C79.9902 71.9712 77.1147 71.0119 74.762 69.3548C70.9281 66.7384 68.4883 62.3777 68.4883 57.4066C68.4883 49.3829 75.0234 42.8419 83.0399 42.8419C91.0564 42.8419 97.6787 49.2957 97.6787 57.3194Z" fill="#DCE2F0"/>
<path d="M93.6706 67.3489C93.4963 67.6105 93.2349 67.785 92.9735 67.9594C90.3595 70.4014 86.874 71.884 83.0401 71.884C79.9903 71.884 77.1149 70.9246 74.7622 69.2676C74.0651 68.8315 73.4552 68.221 72.8452 67.6977C73.1938 67.2617 73.7166 67 74.8493 66.564L75.285 66.3895C76.1564 66.0407 77.3763 65.6046 78.9447 64.9069C79.2061 64.8197 79.3804 64.6453 79.5547 64.4708C79.6418 64.3836 79.7289 64.2964 79.7289 64.122C79.8161 63.9476 79.9032 63.6859 79.9032 63.5115V60.5462C79.8161 60.459 79.8161 60.459 79.7289 60.3718C79.4675 60.023 79.2932 59.5869 79.2932 59.0636L79.119 58.9764C78.3348 59.1508 78.4219 58.3659 78.2476 56.7961C78.1605 56.1856 78.2476 56.0111 78.5962 55.9239L78.8576 55.5751C78.3348 54.3541 78.0733 53.2203 78.0733 52.3482C78.0733 50.8655 78.6833 49.9062 79.5547 49.4701C79.0318 48.4236 79.0318 48.0747 79.0318 48.0747C79.0318 48.0747 82.0816 48.598 83.1272 48.4236C84.4342 48.1619 86.5255 48.5108 87.3097 50.255C88.6167 50.7783 89.0524 51.5632 89.2267 52.4354C89.401 53.8308 88.6167 55.3134 88.4425 55.9239V56.0111C88.6167 56.0983 88.7039 56.2728 88.6167 56.8833C88.4425 58.3659 88.4425 59.238 87.7454 59.0636L87.0483 60.2846C87.0483 60.459 87.0483 60.459 86.9612 60.5462C86.9612 60.8079 86.9612 61.2439 86.9612 63.5987C86.9612 63.8604 87.0483 64.2092 87.2226 64.3836C87.3097 64.4708 87.3097 64.5581 87.3968 64.5581C87.5711 64.7325 87.7454 64.9069 87.9197 64.9069C89.6624 65.6046 90.8823 66.1279 91.8408 66.4768C92.7121 66.8256 93.3221 67.0872 93.6706 67.3489Z" fill="white"/>
<path d="M93.6704 67.3489C93.4961 67.6105 93.2347 67.7849 92.9733 67.9594C90.3592 70.4013 86.8738 71.884 83.0398 71.884C79.9901 71.884 77.1146 70.9246 74.762 69.2676C74.0649 68.8315 73.4549 68.221 72.845 67.6977C73.1935 67.2617 73.7163 67 74.8491 66.5639L75.2848 66.3895C76.1561 66.0407 77.376 65.6046 78.9445 64.9069C79.2059 64.8197 79.3801 64.6453 79.5544 64.4708C80.4258 65.6918 81.8199 66.4767 83.4755 66.4767C85.0439 66.4767 86.4381 65.6918 87.3095 64.558C87.4837 64.7325 87.658 64.9069 87.8323 64.9069C89.575 65.6046 90.7949 66.1279 91.7534 66.4767C92.7119 66.8256 93.3218 67.0872 93.6704 67.3489Z" fill="url(#paint4_linear)"/>
<path d="M88.3552 55.8367C88.4423 55.4879 88.268 54.9646 88.0938 54.7029C88.0938 54.6157 88.0066 54.6157 88.0066 54.5285C87.3967 53.3075 86.0896 52.8715 84.8697 52.7842C81.6457 52.6098 81.3843 53.2203 80.4258 52.3482C80.7744 52.7842 80.7744 53.5692 80.2516 54.4413C79.903 55.0518 79.2931 55.4006 78.6831 55.5751C77.2018 52.261 77.986 50.1678 79.3802 49.4701C78.8574 48.4236 78.8574 48.0747 78.8574 48.0747C78.8574 48.0747 81.9071 48.598 82.9528 48.4236C84.2598 48.1619 86.351 48.5108 87.1353 50.255C88.4423 50.7783 88.878 51.5632 89.0522 52.4354C89.3136 53.7436 88.5294 55.2262 88.3552 55.8367Z" fill="#1C3754"/>
<path d="M79.9902 63.5115V60.5462C79.9031 60.459 79.9031 60.459 79.8159 60.3718V60.1974C79.9902 60.459 80.1645 60.7207 80.4259 60.8951L82.7785 62.5521C83.3013 62.9882 84.0856 62.9882 84.6084 62.5521L86.7868 60.6335C86.8739 60.5462 86.961 60.5462 87.0482 60.459C87.0482 60.7207 87.0482 61.1567 87.0482 63.5115C87.0482 63.6859 87.0482 63.7731 87.1353 63.9476H79.9902C79.9031 63.7731 79.9902 63.6859 79.9902 63.5115Z" fill="url(#paint5_linear)"/>
<path d="M97.6787 57.3194C97.6787 61.5928 95.8488 65.343 92.9734 68.0466C90.3593 70.4886 86.8739 71.9712 83.0399 71.9712C79.9902 71.9712 77.1147 71.0119 74.762 69.3548C70.9281 66.7384 68.4883 62.3777 68.4883 57.4066C68.4883 49.3829 75.0234 42.8419 83.0399 42.8419C91.0564 42.8419 97.6787 49.2957 97.6787 57.3194Z" stroke="white" stroke-width="1.4375" stroke-miterlimit="10" stroke-linecap="round" stroke-linejoin="round"/>
<path d="M0 67.4361C0 70.2269 2.26552 72.4945 5.05386 72.4945H49.8415C50.2772 72.4945 50.7129 72.6689 50.9743 72.9306L57.248 79.2099C57.4223 79.4716 57.7709 79.5588 58.1194 79.3844C58.3808 79.2972 58.6422 78.9483 58.6422 78.6867V49.6446C58.6422 46.8537 56.3767 44.5862 53.5883 44.5862H5.05386C2.26552 44.5862 0 46.8537 0 49.6446V67.4361Z" fill="#D6DEEF"/>
<path opacity="0.7" d="M47.6631 55.924H9.14923C8.80069 55.924 8.45215 55.5751 8.45215 55.2262V52.9587C8.45215 52.6098 8.80069 52.261 9.14923 52.261H47.6631C48.0117 52.261 48.3602 52.6098 48.3602 52.9587V55.2262C48.3602 55.6623 48.0988 55.924 47.6631 55.924Z" fill="url(#paint6_linear)"/>
<path opacity="0.7" d="M32.8501 65.4303H9.14923C8.80069 65.4303 8.45215 65.0814 8.45215 64.7326V62.465C8.45215 62.1162 8.80069 61.7673 9.14923 61.7673H32.8501C33.1986 61.7673 33.5472 62.1162 33.5472 62.465V64.7326C33.5472 65.1687 33.2858 65.4303 32.8501 65.4303Z" fill="url(#paint7_linear)"/>
<g filter="url(#filter0_d)">
<path d="M37.2939 27.0563C37.2939 29.0622 38.9495 30.7192 40.9536 30.7192H52.107C52.4555 30.7192 52.7169 30.8064 52.9783 31.0681L57.5965 35.6904C57.7708 35.8648 58.0322 35.952 58.2065 35.8648C58.3807 35.7776 58.555 35.6032 58.555 35.3416V13.9742C58.555 11.9683 56.8994 10.3113 54.8953 10.3113H40.9536C38.9495 10.3113 37.2939 11.9683 37.2939 13.9742V27.0563Z" fill="white"/>
</g>
<path d="M121.205 33.1612C121.205 35.6904 119.201 37.6963 116.674 37.6963H76.4176C76.0691 37.6963 75.6334 37.8707 75.372 38.1324L69.7082 43.8012C69.5339 43.9757 69.1854 44.0629 68.924 43.9757C68.6626 43.8885 68.4883 43.6268 68.4883 43.3652V17.2011C68.4883 14.6719 70.4924 12.666 73.0193 12.666H116.587C119.114 12.666 121.118 14.6719 121.118 17.2011V33.1612H121.205Z" fill="#D6DEEF"/>
<path opacity="0.7" d="M112.23 22.87H77.6373C77.2887 22.87 77.0273 22.6084 77.0273 22.2595V20.1664C77.0273 19.8175 77.2887 19.5559 77.6373 19.5559H112.23C112.579 19.5559 112.84 19.8175 112.84 20.1664V22.2595C112.84 22.6084 112.579 22.87 112.23 22.87Z" fill="url(#paint8_linear)"/>
<path opacity="0.7" d="M98.9855 31.417H77.6373C77.2887 31.417 77.0273 31.1554 77.0273 30.8065V28.7134C77.0273 28.3645 77.2887 28.1029 77.6373 28.1029H98.9855C99.334 28.1029 99.5954 28.3645 99.5954 28.7134V30.8065C99.5954 31.0682 99.2469 31.417 98.9855 31.417Z" fill="url(#paint9_linear)"/>
<defs>
<filter id="filter0_d" x="18.2474" y="0.787992" width="59.3542" height="63.6809" filterUnits="userSpaceOnUse" color-interpolation-filters="sRGB">
<feFlood flood-opacity="0" result="BackgroundImageFix"/>
<feColorMatrix in="SourceAlpha" type="matrix" values="0 0 0 0 0 0 0 0 0 0 0 0 0 0 0 0 0 0 127 0"/>
<feOffset dy="9.52329"/>
<feGaussianBlur stdDeviation="9.52329"/>
<feColorMatrix type="matrix" values="0 0 0 0 0.397708 0 0 0 0 0.47749 0 0 0 0 0.575 0 0 0 0.18 0"/>
<feBlend mode="normal" in2="BackgroundImageFix" result="effect1_dropShadow"/>
<feBlend mode="normal" in="SourceGraphic" in2="effect1_dropShadow" result="shape"/>
</filter>
<linearGradient id="paint0_linear" x1="11.3309" y1="23.0454" x2="14.2103" y2="23.0454" gradientUnits="userSpaceOnUse">
<stop stop-color="#FF66A9"/>
<stop offset="1" stop-color="#F53689"/>
</linearGradient>
<linearGradient id="paint1_linear" x1="81.7691" y1="5.35364" x2="84.4739" y2="5.35364" gradientUnits="userSpaceOnUse">
<stop stop-color="#83A6FF"/>
<stop offset="1" stop-color="#5A78FF"/>
</linearGradient>
<linearGradient id="paint2_linear" x1="36.253" y1="102.1" x2="53.9211" y2="102.1" gradientUnits="userSpaceOnUse">
<stop stop-color="#FF66A9"/>
<stop offset="1" stop-color="#F53689"/>
</linearGradient>
<linearGradient id="paint3_linear" x1="44.4719" y1="98.2472" x2="44.4719" y2="97.1965" gradientUnits="userSpaceOnUse">
<stop stop-color="white"/>
<stop offset="0.9913" stop-color="#D6DEEA"/>
</linearGradient>
<linearGradient id="paint4_linear" x1="72.8994" y1="68.171" x2="93.6757" y2="68.171" gradientUnits="userSpaceOnUse">
<stop stop-color="#83A6FF"/>
<stop offset="1" stop-color="#5A78FF"/>
</linearGradient>
<linearGradient id="paint5_linear" x1="83.4615" y1="63.8308" x2="83.4615" y2="61.8664" gradientUnits="userSpaceOnUse">
<stop stop-color="white"/>
<stop offset="0.9913" stop-color="#D6DEEA"/>
</linearGradient>
<linearGradient id="paint6_linear" x1="49.4228" y1="54.1219" x2="8.77856" y2="54.1219" gradientUnits="userSpaceOnUse">
<stop offset="0.00651336" stop-color="#9CA6BD" stop-opacity="0"/>
<stop offset="1" stop-color="#929EBD"/>
</linearGradient>
<linearGradient id="paint7_linear" x1="35.6393" y1="63.6074" x2="8.06893" y2="63.6074" gradientUnits="userSpaceOnUse">
<stop offset="0.00651336" stop-color="#9CA6BD" stop-opacity="0"/>
<stop offset="1" stop-color="#929EBD"/>
</linearGradient>
<linearGradient id="paint8_linear" x1="113.797" y1="21.2035" x2="77.2799" y2="21.2035" gradientUnits="userSpaceOnUse">
<stop offset="0.00651336" stop-color="#9CA6BD" stop-opacity="0"/>
<stop offset="1" stop-color="#929EBD"/>
</linearGradient>
<linearGradient id="paint9_linear" x1="101.413" y1="29.7258" x2="76.6423" y2="29.7258" gradientUnits="userSpaceOnUse">
<stop offset="0.00651336" stop-color="#9CA6BD" stop-opacity="0"/>
<stop offset="1" stop-color="#929EBD"/>
</linearGradient>
</defs>
</svg>
