<svg width="95" height="107" viewBox="0 0 95 107" fill="none" xmlns="http://www.w3.org/2000/svg">
<path d="M92.7389 53.6636C92.7389 64.1812 89.2123 73.934 83.303 81.7745C80.0624 85.9815 76.1545 89.7105 71.6749 92.579C64.4311 97.3597 55.7577 100.133 46.4171 100.133C20.7781 100.133 0 79.2885 0 53.6636C0 27.943 20.7781 7.19452 46.3218 7.19452C55.6624 7.19452 64.3358 9.96736 71.5796 14.6525C76.0592 17.521 79.967 21.25 83.2077 25.457C89.2123 33.3931 92.7389 43.1459 92.7389 53.6636Z" fill="#EAEEF9"/>
<path d="M0.865723 105.438H93.5013" stroke="#EBF0F6" stroke-width="1.73151" stroke-miterlimit="10" stroke-linecap="round" stroke-linejoin="round"/>
<path d="M67.371 104.714C60.4755 104.895 52.219 104.714 46.4123 104.623C40.6056 104.804 32.3491 104.895 25.4536 104.714C32.2584 100.822 34.6174 93.6732 34.9803 88.9674H57.7536C58.298 93.6732 60.657 100.913 67.371 104.714Z" fill="url(#paint0_linear)"/>
<path d="M26.1796 105.89H66.6453C67.1897 105.89 67.7341 105.438 67.7341 104.804C67.7341 104.261 67.2804 103.718 66.6453 103.718H26.1796C25.6352 103.718 25.0908 104.171 25.0908 104.804C25.1816 105.438 25.6352 105.89 26.1796 105.89Z" fill="#EBF0F6"/>
<path d="M89.5092 29.0586V88.2435C89.5092 89.6915 88.3297 90.7774 86.9687 90.7774H6.30949C4.94854 90.7774 3.76904 89.601 3.76904 88.2435V29.0586C3.76904 27.7011 4.94854 26.5247 6.30949 26.5247H86.9687C88.4204 26.5247 89.5092 27.6106 89.5092 29.0586Z" fill="#F5F8FF"/>
<path d="M89.5092 29.0586V80.0083H3.76904V29.0586C3.76904 27.7011 4.94854 26.5247 6.30949 26.5247H86.9687C88.4204 26.5247 89.5092 27.6106 89.5092 29.0586Z" fill="#172D45"/>
<path d="M86.2431 29.692H6.67261V77.1124H86.2431V29.692Z" fill="white"/>
<path d="M46.4122 87.7909C47.5647 87.7909 48.499 86.859 48.499 85.7095C48.499 84.5599 47.5647 83.6281 46.4122 83.6281C45.2597 83.6281 44.3254 84.5599 44.3254 85.7095C44.3254 86.859 45.2597 87.7909 46.4122 87.7909Z" fill="#DBDFE6"/>
<path d="M10.2108 69.8727H8.39624V71.6826H10.2108V69.8727Z" fill="#EAEEF9"/>
<path d="M10.2108 66.3433H8.39624V68.1532H10.2108V66.3433Z" fill="#EAEEF9"/>
<path d="M10.2108 62.7234H8.39624V64.5333H10.2108V62.7234Z" fill="#EAEEF9"/>
<path d="M10.2108 59.1941H8.39624V61.004H10.2108V59.1941Z" fill="url(#paint1_linear)"/>
<path d="M10.2108 55.6647H8.39624V57.4746H10.2108V55.6647Z" fill="#EAEEF9"/>
<path d="M10.2108 52.0448H8.39624V53.8547H10.2108V52.0448Z" fill="#F3F5FA"/>
<path d="M13.9306 73.4021H12.116V75.212H13.9306V73.4021Z" fill="#EAEEF9"/>
<path d="M13.9306 69.8727H12.116V71.6826H13.9306V69.8727Z" fill="#EAEEF9"/>
<path d="M13.9306 62.7234H12.116V64.5333H13.9306V62.7234Z" fill="#EAEEF9"/>
<path d="M13.9306 59.1941H12.116V61.004H13.9306V59.1941Z" fill="#EAEEF9"/>
<path d="M13.9306 55.6647H12.116V57.4746H13.9306V55.6647Z" fill="#EAEEF9"/>
<path d="M13.9306 52.0448H12.116V53.8547H13.9306V52.0448Z" fill="#EAEEF9"/>
<path d="M13.9306 48.5154H12.116V50.3253H13.9306V48.5154Z" fill="#EAEEF9"/>
<path d="M13.9306 44.8955H12.116V46.7054H13.9306V44.8955Z" fill="url(#paint2_linear)"/>
<path d="M17.6508 73.4021H15.8362V75.212H17.6508V73.4021Z" fill="#EAEEF9"/>
<path d="M17.6508 69.8727H15.8362V71.6826H17.6508V69.8727Z" fill="#EAEEF9"/>
<path d="M17.6508 66.3433H15.8362V68.1532H17.6508V66.3433Z" fill="#EAEEF9"/>
<path d="M17.6508 62.7234H15.8362V64.5333H17.6508V62.7234Z" fill="#EAEEF9"/>
<path d="M17.6508 59.1941H15.8362V61.004H17.6508V59.1941Z" fill="url(#paint3_linear)"/>
<path d="M17.6508 55.6647H15.8362V57.4746H17.6508V55.6647Z" fill="#F3F5FA"/>
<path d="M17.6508 52.0448H15.8362V53.8547H17.6508V52.0448Z" fill="#EAEEF9"/>
<path d="M17.6508 48.5154H15.8362V50.3253H17.6508V48.5154Z" fill="#F3F5FA"/>
<path d="M17.6508 44.8955H15.8362V46.7054H17.6508V44.8955Z" fill="#EAEEF9"/>
<path d="M17.6508 41.3661H15.8362V43.176H17.6508V41.3661Z" fill="#F3F5FA"/>
<path d="M21.3705 73.4021H19.5559V75.212H21.3705V73.4021Z" fill="#EAEEF9"/>
<path d="M21.3705 69.8727H19.5559V71.6826H21.3705V69.8727Z" fill="#EAEEF9"/>
<path d="M21.3705 66.3433H19.5559V68.1532H21.3705V66.3433Z" fill="#EAEEF9"/>
<path d="M21.3705 62.7234H19.5559V64.5333H21.3705V62.7234Z" fill="#EAEEF9"/>
<path d="M21.3705 59.1941H19.5559V61.004H21.3705V59.1941Z" fill="#EAEEF9"/>
<path d="M21.3705 55.6647H19.5559V57.4746H21.3705V55.6647Z" fill="#F3F5FA"/>
<path d="M21.3705 52.0448H19.5559V53.8547H21.3705V52.0448Z" fill="#EAEEF9"/>
<path d="M21.3705 48.5154H19.5559V50.3253H21.3705V48.5154Z" fill="#EAEEF9"/>
<path d="M25.0905 73.4021H23.2759V75.212H25.0905V73.4021Z" fill="#EAEEF9"/>
<path d="M25.0905 69.8727H23.2759V71.6826H25.0905V69.8727Z" fill="#EAEEF9"/>
<path d="M25.0905 66.3433H23.2759V68.1532H25.0905V66.3433Z" fill="#EAEEF9"/>
<path d="M25.0905 59.1941H23.2759V61.004H25.0905V59.1941Z" fill="#EAEEF9"/>
<path d="M25.0905 55.6647H23.2759V57.4746H25.0905V55.6647Z" fill="url(#paint4_linear)"/>
<path d="M25.0905 52.0448H23.2759V53.8547H25.0905V52.0448Z" fill="#F3F5FA"/>
<path d="M28.8107 73.4021H26.9961V75.212H28.8107V73.4021Z" fill="#EAEEF9"/>
<path d="M28.8107 69.8727H26.9961V71.6826H28.8107V69.8727Z" fill="#EAEEF9"/>
<path d="M28.8107 66.3433H26.9961V68.1532H28.8107V66.3433Z" fill="#EAEEF9"/>
<path d="M28.8107 62.7234H26.9961V64.5333H28.8107V62.7234Z" fill="#EAEEF9"/>
<path d="M28.8107 59.1941H26.9961V61.004H28.8107V59.1941Z" fill="#EAEEF9"/>
<path d="M28.8107 55.6647H26.9961V57.4746H28.8107V55.6647Z" fill="#EAEEF9"/>
<path d="M28.8107 52.0448H26.9961V53.8547H28.8107V52.0448Z" fill="#F3F5FA"/>
<path d="M28.8107 48.5154H26.9961V50.3253H28.8107V48.5154Z" fill="#EAEEF9"/>
<path d="M28.8107 44.8955H26.9961V46.7054H28.8107V44.8955Z" fill="#EAEEF9"/>
<path d="M32.5304 73.4021H30.7158V75.212H32.5304V73.4021Z" fill="#EAEEF9"/>
<path d="M32.5304 69.8727H30.7158V71.6826H32.5304V69.8727Z" fill="#EAEEF9"/>
<path d="M32.5304 66.3433H30.7158V68.1532H32.5304V66.3433Z" fill="#EAEEF9"/>
<path d="M32.5304 59.1941H30.7158V61.004H32.5304V59.1941Z" fill="#EAEEF9"/>
<path d="M32.5304 55.6647H30.7158V57.4746H32.5304V55.6647Z" fill="#F3F5FA"/>
<path d="M36.2504 73.4021H34.4358V75.212H36.2504V73.4021Z" fill="url(#paint5_linear)"/>
<path d="M36.2504 69.8727H34.4358V71.6826H36.2504V69.8727Z" fill="#EAEEF9"/>
<path d="M36.2504 66.3433H34.4358V68.1532H36.2504V66.3433Z" fill="#EAEEF9"/>
<path d="M36.2504 62.7234H34.4358V64.5333H36.2504V62.7234Z" fill="#F3F5FA"/>
<path d="M36.2504 59.1941H34.4358V61.004H36.2504V59.1941Z" fill="#EAEEF9"/>
<path d="M36.2504 52.0448H34.4358V53.8547H36.2504V52.0448Z" fill="#EAEEF9"/>
<path d="M36.2504 48.5154H34.4358V50.3253H36.2504V48.5154Z" fill="#F3F5FA"/>
<path d="M39.9704 73.4021H38.1558V75.212H39.9704V73.4021Z" fill="#EAEEF9"/>
<path d="M39.9704 69.8727H38.1558V71.6826H39.9704V69.8727Z" fill="#EAEEF9"/>
<path d="M39.9704 66.3433H38.1558V68.1532H39.9704V66.3433Z" fill="url(#paint6_linear)"/>
<path d="M39.9704 62.7234H38.1558V64.5333H39.9704V62.7234Z" fill="#EAEEF9"/>
<path d="M39.9704 59.1941H38.1558V61.004H39.9704V59.1941Z" fill="#EAEEF9"/>
<path d="M39.9704 55.6647H38.1558V57.4746H39.9704V55.6647Z" fill="#EAEEF9"/>
<path d="M39.9704 52.0448H38.1558V53.8547H39.9704V52.0448Z" fill="#F3F5FA"/>
<path d="M39.9704 44.8955H38.1558V46.7054H39.9704V44.8955Z" fill="#EAEEF9"/>
<path d="M39.9704 41.3661H38.1558V43.176H39.9704V41.3661Z" fill="#F3F5FA"/>
<path d="M65.9191 69.8727H64.1045V71.6826H65.9191V69.8727Z" fill="#EAEEF9"/>
<path d="M65.9191 62.7234H64.1045V64.5333H65.9191V62.7234Z" fill="#EAEEF9"/>
<path d="M65.9191 59.1941H64.1045V61.004H65.9191V59.1941Z" fill="#EAEEF9"/>
<path d="M65.9191 55.6647H64.1045V57.4746H65.9191V55.6647Z" fill="#F3F5FA"/>
<path d="M65.9191 52.0448H64.1045V53.8547H65.9191V52.0448Z" fill="#EAEEF9"/>
<path d="M65.9191 48.5154H64.1045V50.3253H65.9191V48.5154Z" fill="#EAEEF9"/>
<path d="M69.6391 73.4021H67.8245V75.212H69.6391V73.4021Z" fill="#EAEEF9"/>
<path d="M69.6391 69.8727H67.8245V71.6826H69.6391V69.8727Z" fill="#EAEEF9"/>
<path d="M69.6391 66.3433H67.8245V68.1532H69.6391V66.3433Z" fill="#EAEEF9"/>
<path d="M69.6391 62.7234H67.8245V64.5333H69.6391V62.7234Z" fill="#EAEEF9"/>
<path d="M69.6391 59.1941H67.8245V61.004H69.6391V59.1941Z" fill="#EAEEF9"/>
<path d="M69.6391 55.6647H67.8245V57.4746H69.6391V55.6647Z" fill="url(#paint7_linear)"/>
<path d="M69.6391 52.0448H67.8245V53.8547H69.6391V52.0448Z" fill="#F3F5FA"/>
<path d="M73.359 73.4021H71.5444V75.212H73.359V73.4021Z" fill="#EAEEF9"/>
<path d="M73.359 69.8727H71.5444V71.6826H73.359V69.8727Z" fill="#EAEEF9"/>
<path d="M73.359 66.3433H71.5444V68.1532H73.359V66.3433Z" fill="#EAEEF9"/>
<path d="M73.359 62.7234H71.5444V64.5333H73.359V62.7234Z" fill="#EAEEF9"/>
<path d="M73.359 59.1941H71.5444V61.004H73.359V59.1941Z" fill="#EAEEF9"/>
<path d="M73.359 55.6647H71.5444V57.4746H73.359V55.6647Z" fill="#EAEEF9"/>
<path d="M73.359 52.0448H71.5444V53.8547H73.359V52.0448Z" fill="#F3F5FA"/>
<path d="M73.359 48.5154H71.5444V50.3253H73.359V48.5154Z" fill="#EAEEF9"/>
<path d="M73.359 44.8955H71.5444V46.7054H73.359V44.8955Z" fill="#EAEEF9"/>
<path d="M77.079 73.4021H75.2644V75.212H77.079V73.4021Z" fill="#EAEEF9"/>
<path d="M77.079 69.8727H75.2644V71.6826H77.079V69.8727Z" fill="#EAEEF9"/>
<path d="M77.079 66.3433H75.2644V68.1532H77.079V66.3433Z" fill="#EAEEF9"/>
<path d="M77.079 62.7234H75.2644V64.5333H77.079V62.7234Z" fill="#EAEEF9"/>
<path d="M77.079 59.1941H75.2644V61.004H77.079V59.1941Z" fill="#EAEEF9"/>
<path d="M80.799 73.4021H78.9844V75.212H80.799V73.4021Z" fill="url(#paint8_linear)"/>
<path d="M80.799 69.8727H78.9844V71.6826H80.799V69.8727Z" fill="#EAEEF9"/>
<path d="M80.799 66.3433H78.9844V68.1532H80.799V66.3433Z" fill="#EAEEF9"/>
<path d="M80.799 62.7234H78.9844V64.5333H80.799V62.7234Z" fill="#F3F5FA"/>
<path d="M80.799 59.1941H78.9844V61.004H80.799V59.1941Z" fill="#EAEEF9"/>
<path d="M80.799 55.6647H78.9844V57.4746H80.799V55.6647Z" fill="url(#paint9_linear)"/>
<path d="M80.799 52.0448H78.9844V53.8547H80.799V52.0448Z" fill="#EAEEF9"/>
<path d="M80.799 48.5154H78.9844V50.3253H80.799V48.5154Z" fill="#F3F5FA"/>
<path d="M84.519 73.4021H82.7043V75.212H84.519V73.4021Z" fill="#EAEEF9"/>
<path d="M84.519 69.8727H82.7043V71.6826H84.519V69.8727Z" fill="#EAEEF9"/>
<path d="M84.519 66.3433H82.7043V68.1532H84.519V66.3433Z" fill="url(#paint10_linear)"/>
<path d="M84.519 62.7234H82.7043V64.5333H84.519V62.7234Z" fill="#EAEEF9"/>
<path d="M84.519 59.1941H82.7043V61.004H84.519V59.1941Z" fill="#EAEEF9"/>
<path d="M84.519 55.6647H82.7043V57.4746H84.519V55.6647Z" fill="#EAEEF9"/>
<path d="M84.519 52.0448H82.7043V53.8547H84.519V52.0448Z" fill="#F3F5FA"/>
<path d="M84.519 44.8955H82.7043V46.7054H84.519V44.8955Z" fill="#EAEEF9"/>
<path d="M84.519 41.3661H82.7043V43.176H84.519V41.3661Z" fill="#F3F5FA"/>
<path d="M43.5995 73.4021H41.7849V75.212H43.5995V73.4021Z" fill="#EAEEF9"/>
<path d="M43.5995 69.8727H41.7849V71.6826H43.5995V69.8727Z" fill="#EAEEF9"/>
<path d="M43.5995 66.3433H41.7849V68.1532H43.5995V66.3433Z" fill="#EAEEF9"/>
<path d="M43.5995 59.1941H41.7849V61.004H43.5995V59.1941Z" fill="#F3F5FA"/>
<path d="M43.5995 52.0448H41.7849V53.8547H43.5995V52.0448Z" fill="#EAEEF9"/>
<path d="M43.5995 48.5154H41.7849V50.3253H43.5995V48.5154Z" fill="#F3F5FA"/>
<path d="M43.5995 44.8955H41.7849V46.7054H43.5995V44.8955Z" fill="#EAEEF9"/>
<path d="M43.5995 41.3661H41.7849V43.176H43.5995V41.3661Z" fill="#F3F5FA"/>
<path d="M47.3195 69.8727H45.5049V71.6826H47.3195V69.8727Z" fill="#EAEEF9"/>
<path d="M47.3195 66.3433H45.5049V68.1532H47.3195V66.3433Z" fill="#F3F5FA"/>
<path d="M47.3195 62.7234H45.5049V64.5333H47.3195V62.7234Z" fill="#EAEEF9"/>
<path d="M47.3195 59.1941H45.5049V61.004H47.3195V59.1941Z" fill="#EAEEF9"/>
<path d="M47.3195 55.6647H45.5049V57.4746H47.3195V55.6647Z" fill="url(#paint11_linear)"/>
<path d="M47.3195 52.0448H45.5049V53.8547H47.3195V52.0448Z" fill="#EAEEF9"/>
<path d="M47.3195 48.5154H45.5049V50.3253H47.3195V48.5154Z" fill="#EAEEF9"/>
<path d="M51.0395 73.4021H49.2249V75.212H51.0395V73.4021Z" fill="#EAEEF9"/>
<path d="M51.0395 66.3433H49.2249V68.1532H51.0395V66.3433Z" fill="#EAEEF9"/>
<path d="M51.0395 62.7234H49.2249V64.5333H51.0395V62.7234Z" fill="url(#paint12_linear)"/>
<path d="M51.0395 59.1941H49.2249V61.004H51.0395V59.1941Z" fill="#EAEEF9"/>
<path d="M51.0395 55.6647H49.2249V57.4746H51.0395V55.6647Z" fill="#F3F5FA"/>
<path d="M51.0395 52.0448H49.2249V53.8547H51.0395V52.0448Z" fill="url(#paint13_linear)"/>
<path d="M54.7594 73.4021H52.9448V75.212H54.7594V73.4021Z" fill="#EAEEF9"/>
<path d="M54.7594 62.7234H52.9448V64.5333H54.7594V62.7234Z" fill="#F3F5FA"/>
<path d="M54.7594 59.1941H52.9448V61.004H54.7594V59.1941Z" fill="#EAEEF9"/>
<path d="M54.7594 55.6647H52.9448V57.4746H54.7594V55.6647Z" fill="#EAEEF9"/>
<path d="M58.4794 73.4021H56.6648V75.212H58.4794V73.4021Z" fill="#EAEEF9"/>
<path d="M58.4794 69.8727H56.6648V71.6826H58.4794V69.8727Z" fill="#EAEEF9"/>
<path d="M58.4794 66.3433H56.6648V68.1532H58.4794V66.3433Z" fill="#EAEEF9"/>
<path d="M58.4794 62.7234H56.6648V64.5333H58.4794V62.7234Z" fill="#EAEEF9"/>
<path d="M58.4794 59.1941H56.6648V61.004H58.4794V59.1941Z" fill="#F3F5FA"/>
<path d="M58.4794 55.6647H56.6648V57.4746H58.4794V55.6647Z" fill="#EAEEF9"/>
<path d="M58.4794 52.0448H56.6648V53.8547H58.4794V52.0448Z" fill="url(#paint14_linear)"/>
<path d="M58.4794 48.5154H56.6648V50.3253H58.4794V48.5154Z" fill="#EAEEF9"/>
<path d="M62.1991 73.4021H60.3845V75.212H62.1991V73.4021Z" fill="#EAEEF9"/>
<path d="M62.1991 66.3433H60.3845V68.1532H62.1991V66.3433Z" fill="#EAEEF9"/>
<path d="M62.1991 62.7234H60.3845V64.5333H62.1991V62.7234Z" fill="#F3F5FA"/>
<g filter="url(#filter0_d)">
<path d="M78.0774 30.416C78.0774 36.5698 73.0872 41.5472 66.9175 41.5472C66.8268 41.5472 65.9195 41.5472 59.2055 41.5472C54.5782 41.5472 47.1383 41.5472 35.2527 41.5472H29.6274C22.1875 41.7281 16.29 35.7554 16.29 28.6061C16.29 21.3664 22.2782 15.3936 29.8089 15.7555C36.2507 -4.42526 65.8288 -1.61986 68.3692 19.2849C73.9038 20.0089 78.0774 24.7147 78.0774 30.416Z" fill="#EDF1F6"/>
</g>
<g opacity="0.15">
<path opacity="0.15" d="M59.8406 41.5471C54.9412 41.5471 47.0476 41.5471 34.5269 41.5471C36.7044 36.7508 41.6038 33.4929 47.2291 33.4929C52.8544 33.4929 57.6631 36.7508 59.8406 41.5471Z" fill="url(#paint15_linear)"/>
</g>
<path d="M66.9174 41.547C73.0808 41.547 78.0772 36.5634 78.0772 30.4159C78.0772 24.2684 73.0808 19.2848 66.9174 19.2848C60.754 19.2848 55.7576 24.2684 55.7576 30.4159C55.7576 36.5634 60.754 41.547 66.9174 41.547Z" fill="url(#paint16_linear)"/>
<path d="M48.6807 41.6376C59.6546 41.6376 68.5507 32.7644 68.5507 21.8188C68.5507 10.8732 59.6546 2 48.6807 2C37.7069 2 28.8108 10.8732 28.8108 21.8188C28.8108 32.7644 37.7069 41.6376 48.6807 41.6376Z" fill="url(#paint17_linear)"/>
<g filter="url(#filter1_d)">
<path d="M62.3342 44.6303C62.3342 46.5802 62.0111 48.3676 61.2841 50.0738C59.6686 54.2986 56.1952 57.5484 51.914 59.0109C50.4601 59.4983 48.9253 59.7421 47.3098 59.7421C38.9898 59.7421 32.2854 52.9986 32.2854 44.6303C32.2854 36.2619 38.9898 29.5184 47.3098 29.5184C55.6298 29.5184 62.3342 36.3431 62.3342 44.6303Z" fill="url(#paint18_linear)"/>
</g>
<path d="M61.284 50.0737C59.6684 54.2985 56.1951 57.5484 51.9139 59.0108L43.5132 50.5612L44.4017 45.199L45.1287 39.1867L47.1481 37.8868L48.1982 38.0493L49.0868 37.8055L61.284 50.0737Z" fill="url(#paint19_linear)"/>
<path d="M50.0562 42.5991V39.9179C50.0562 38.4555 48.8446 37.2368 47.3906 37.2368C46.6636 37.2368 46.0174 37.5618 45.452 38.0493C44.9673 38.5368 44.6442 39.1867 44.6442 39.9992V42.6803C43.9173 43.1678 43.3518 43.7365 42.8672 44.549C42.4633 45.2802 42.2209 46.1739 42.2209 47.0676C42.2209 49.9112 44.4827 52.1861 47.3099 52.1861C50.137 52.1861 52.3988 49.9112 52.3988 47.0676C52.4795 45.1177 51.5102 43.4928 50.0562 42.5991ZM47.9561 47.5551V48.9363C47.9561 49.0988 47.7945 49.2613 47.633 49.2613H47.0675C46.906 49.2613 46.7444 49.0988 46.7444 48.9363V48.0426V47.5551C46.2598 47.3114 46.0174 46.7426 46.0982 46.1739C46.179 45.6864 46.5829 45.2802 47.0675 45.199C47.8753 45.0365 48.6023 45.6864 48.6023 46.4177C48.6023 46.9051 48.3599 47.3114 47.9561 47.5551ZM48.8446 42.0304C48.3599 41.8679 47.8753 41.7866 47.3099 41.7866C46.8252 41.7866 46.3405 41.8679 45.8559 42.0304V39.9992C45.8559 39.593 46.0174 39.1867 46.2598 38.943C46.5021 38.6993 46.906 38.5368 47.3099 38.5368C48.1176 38.5368 48.7638 39.1867 48.7638 39.9992V42.0304H48.8446Z" fill="url(#paint20_linear)"/>
<defs>
<filter id="filter0_d" x="5.03524" y="0.290344" width="84.2969" height="62.0389" filterUnits="userSpaceOnUse" color-interpolation-filters="sRGB">
<feFlood flood-opacity="0" result="BackgroundImageFix"/>
<feColorMatrix in="SourceAlpha" type="matrix" values="0 0 0 0 0 0 0 0 0 0 0 0 0 0 0 0 0 0 127 0"/>
<feOffset dy="9.52329"/>
<feGaussianBlur stdDeviation="5.6274"/>
<feColorMatrix type="matrix" values="0 0 0 0 0.397708 0 0 0 0 0.47749 0 0 0 0 0.575 0 0 0 0.22 0"/>
<feBlend mode="normal" in2="BackgroundImageFix" result="effect1_dropShadow"/>
<feBlend mode="normal" in="SourceGraphic" in2="effect1_dropShadow" result="shape"/>
</filter>
<filter id="filter1_d" x="25.3594" y="26.9212" width="43.9008" height="44.0757" filterUnits="userSpaceOnUse" color-interpolation-filters="sRGB">
<feFlood flood-opacity="0" result="BackgroundImageFix"/>
<feColorMatrix in="SourceAlpha" type="matrix" values="0 0 0 0 0 0 0 0 0 0 0 0 0 0 0 0 0 0 127 0"/>
<feOffset dy="4.32877"/>
<feGaussianBlur stdDeviation="3.46301"/>
<feColorMatrix type="matrix" values="0 0 0 0 0.1125 0 0 0 0 0.295916 0 0 0 0 1 0 0 0 0.22 0"/>
<feBlend mode="normal" in2="BackgroundImageFix" result="effect1_dropShadow"/>
<feBlend mode="normal" in="SourceGraphic" in2="effect1_dropShadow" result="shape"/>
</filter>
<linearGradient id="paint0_linear" x1="46.4546" y1="104.316" x2="46.4546" y2="90.1995" gradientUnits="userSpaceOnUse">
<stop stop-color="#F5F8FF"/>
<stop offset="0.9913" stop-color="#D8E0EB"/>
</linearGradient>
<linearGradient id="paint1_linear" x1="8.41792" y1="60.0982" x2="10.2389" y2="60.0982" gradientUnits="userSpaceOnUse">
<stop stop-color="#FF66A9"/>
<stop offset="1" stop-color="#F53689"/>
</linearGradient>
<linearGradient id="paint2_linear" x1="12.1297" y1="45.8475" x2="13.9506" y2="45.8475" gradientUnits="userSpaceOnUse">
<stop stop-color="#FF66A9"/>
<stop offset="1" stop-color="#F53689"/>
</linearGradient>
<linearGradient id="paint3_linear" x1="15.8419" y1="60.0982" x2="17.6628" y2="60.0982" gradientUnits="userSpaceOnUse">
<stop stop-color="#83A6FF"/>
<stop offset="1" stop-color="#5A78FF"/>
</linearGradient>
<linearGradient id="paint4_linear" x1="23.2655" y1="56.5355" x2="25.0865" y2="56.5355" gradientUnits="userSpaceOnUse">
<stop stop-color="#FF66A9"/>
<stop offset="1" stop-color="#F53689"/>
</linearGradient>
<linearGradient id="paint5_linear" x1="34.4014" y1="74.3489" x2="36.2224" y2="74.3489" gradientUnits="userSpaceOnUse">
<stop stop-color="#83A6FF"/>
<stop offset="1" stop-color="#5A78FF"/>
</linearGradient>
<linearGradient id="paint6_linear" x1="38.1133" y1="67.2234" x2="39.9343" y2="67.2234" gradientUnits="userSpaceOnUse">
<stop stop-color="#FF66A9"/>
<stop offset="1" stop-color="#F53689"/>
</linearGradient>
<linearGradient id="paint7_linear" x1="67.8378" y1="56.5355" x2="69.6588" y2="56.5355" gradientUnits="userSpaceOnUse">
<stop stop-color="#FF66A9"/>
<stop offset="1" stop-color="#F53689"/>
</linearGradient>
<linearGradient id="paint8_linear" x1="78.9737" y1="74.3489" x2="80.7946" y2="74.3489" gradientUnits="userSpaceOnUse">
<stop stop-color="#83A6FF"/>
<stop offset="1" stop-color="#5A78FF"/>
</linearGradient>
<linearGradient id="paint9_linear" x1="78.9737" y1="56.5355" x2="80.7946" y2="56.5355" gradientUnits="userSpaceOnUse">
<stop stop-color="#83A6FF"/>
<stop offset="1" stop-color="#5A78FF"/>
</linearGradient>
<linearGradient id="paint10_linear" x1="82.6857" y1="67.2234" x2="84.5065" y2="67.2234" gradientUnits="userSpaceOnUse">
<stop stop-color="#FF66A9"/>
<stop offset="1" stop-color="#F53689"/>
</linearGradient>
<linearGradient id="paint11_linear" x1="45.5372" y1="56.5355" x2="47.358" y2="56.5355" gradientUnits="userSpaceOnUse">
<stop stop-color="#83A6FF"/>
<stop offset="1" stop-color="#5A78FF"/>
</linearGradient>
<linearGradient id="paint12_linear" x1="49.2491" y1="63.6608" x2="51.07" y2="63.6608" gradientUnits="userSpaceOnUse">
<stop stop-color="#FF66A9"/>
<stop offset="1" stop-color="#F53689"/>
</linearGradient>
<linearGradient id="paint13_linear" x1="49.2491" y1="52.9728" x2="51.07" y2="52.9728" gradientUnits="userSpaceOnUse">
<stop stop-color="#83A6FF"/>
<stop offset="1" stop-color="#5A78FF"/>
</linearGradient>
<linearGradient id="paint14_linear" x1="56.6731" y1="52.9728" x2="58.4939" y2="52.9728" gradientUnits="userSpaceOnUse">
<stop stop-color="#FF66A9"/>
<stop offset="1" stop-color="#F53689"/>
</linearGradient>
<linearGradient id="paint15_linear" x1="47.2022" y1="42.082" x2="47.2022" y2="33.4421" gradientUnits="userSpaceOnUse">
<stop offset="0.00289017" stop-color="#83A6FF"/>
<stop offset="1" stop-color="#5A78FF"/>
</linearGradient>
<linearGradient id="paint16_linear" x1="54.5449" y1="16.9233" x2="64.4453" y2="27.7516" gradientUnits="userSpaceOnUse">
<stop stop-color="white"/>
<stop offset="0.9942" stop-color="white" stop-opacity="0"/>
</linearGradient>
<linearGradient id="paint17_linear" x1="33.6534" y1="10.233" x2="40.3078" y2="15.3756" gradientUnits="userSpaceOnUse">
<stop stop-color="white"/>
<stop offset="0.9942" stop-color="white" stop-opacity="0"/>
</linearGradient>
<linearGradient id="paint18_linear" x1="39.2607" y1="32.2772" x2="55.926" y2="57.5105" gradientUnits="userSpaceOnUse">
<stop stop-color="#83A6FF"/>
<stop offset="1" stop-color="#5A78FF"/>
</linearGradient>
<linearGradient id="paint19_linear" x1="44.5147" y1="42.3572" x2="55.2292" y2="53.0096" gradientUnits="userSpaceOnUse">
<stop stop-color="#4F6AFF"/>
<stop offset="1" stop-color="#657EFF" stop-opacity="0"/>
</linearGradient>
<linearGradient id="paint20_linear" x1="51.4673" y1="49.3054" x2="44.7547" y2="42.6316" gradientUnits="userSpaceOnUse">
<stop offset="0.0113208" stop-color="#C2D1FF"/>
<stop offset="1" stop-color="white"/>
</linearGradient>
</defs>
</svg>
