<svg width="100" height="125" viewBox="0 0 100 125" fill="none" xmlns="http://www.w3.org/2000/svg">
<path d="M4.98267 19.3792C6.31569 18.9487 7.04509 17.5257 6.61182 16.201C6.17855 14.8762 4.74669 14.1514 3.41366 14.5819C2.08063 15.0125 1.35123 16.4355 1.7845 17.7602C2.21777 19.085 3.64964 19.8098 4.98267 19.3792Z" fill="#EAEEF9"/>
<path d="M10.5234 11.1498C11.4299 10.857 11.9258 9.8894 11.6312 8.98858C11.3366 8.08776 10.3629 7.59485 9.45647 7.88764C8.55002 8.18043 8.05402 9.14804 8.34865 10.0489C8.64327 10.9497 9.61694 11.4426 10.5234 11.1498Z" fill="#EAEEF9"/>
<path d="M87.928 9.55076C88.4661 9.06211 88.5036 8.2325 88.0119 7.69778C87.5202 7.16306 86.6854 7.12572 86.1473 7.61437C85.6093 8.10302 85.5717 8.93262 86.0634 9.46734C86.5551 10.0021 87.3899 10.0394 87.928 9.55076Z" fill="#EAEEF9"/>
<path d="M11.5017 93.7374C12.164 93.136 12.2102 92.1149 11.605 91.4568C10.9999 90.7987 9.9724 90.7527 9.31017 91.3542C8.64793 91.9556 8.60168 92.9766 9.20686 93.6347C9.81205 94.2929 10.8395 94.3388 11.5017 93.7374Z" fill="#EAEEF9"/>
<path d="M97.0988 33.9276V71.9629C97.0988 72.5682 97.0988 73.0727 96.9973 73.678C96.4897 78.0163 93.9516 81.8501 90.0938 84.0696L56.998 103.037C53.8509 104.853 50.0946 105.357 46.6429 104.449C45.3231 104.147 44.1049 103.642 42.9881 103.037L9.79079 83.9687C7.25277 82.5563 5.32387 80.4376 4.10562 77.9154C3.19193 76.0994 2.68433 73.9807 2.68433 71.862V33.9276C2.68433 31.9098 3.09041 29.9929 3.90258 28.1769C5.12083 25.5538 7.04973 23.3342 9.68927 21.8209L42.8866 2.85371C46.1353 1.0377 49.79 0.533254 53.3433 1.44126C54.5615 1.74393 55.7798 2.24837 56.998 2.85371L90.0938 21.8209C93.038 23.536 95.1699 26.1591 96.2866 29.2867C96.7942 30.6992 97.0988 32.3134 97.0988 33.9276Z" fill="#EAEEF9"/>
<g filter="url(#filter0_d)">
<path d="M80.5508 14.456V92.3426C80.5508 94.5621 78.7234 96.3781 76.49 96.3781H23.293C21.0596 96.3781 19.2322 94.5621 19.2322 92.3426V14.456C19.2322 12.2364 21.0596 10.4204 23.293 10.4204H76.49C78.7234 10.4204 80.5508 12.2364 80.5508 14.456Z" fill="white"/>
</g>
<path d="M22.9885 42.705H21.0596V44.6219H22.9885V42.705Z" fill="#EAEEF9"/>
<path d="M22.9885 38.8712H21.0596V40.7881H22.9885V38.8712Z" fill="#EAEEF9"/>
<path d="M22.9885 35.1383H21.0596V37.0552H22.9885V35.1383Z" fill="url(#paint0_linear)"/>
<path d="M22.9885 27.4707H21.0596V29.3876H22.9885V27.4707Z" fill="#F3F5FA"/>
<path d="M26.9477 35.1383H25.0188V37.0552H26.9477V35.1383Z" fill="#EAEEF9"/>
<path d="M26.9477 19.9039H25.0188V21.8208H26.9477V19.9039Z" fill="url(#paint1_linear)"/>
<path d="M30.9072 42.705H28.9783V44.6219H30.9072V42.705Z" fill="#EAEEF9"/>
<path d="M30.9072 38.8712H28.9783V40.7881H30.9072V38.8712Z" fill="#EAEEF9"/>
<path d="M30.9072 35.1383H28.9783V37.0552H30.9072V35.1383Z" fill="url(#paint2_linear)"/>
<path d="M30.9072 31.3044H28.9783V33.2213H30.9072V31.3044Z" fill="#F3F5FA"/>
<path d="M30.9072 27.4707H28.9783V29.3876H30.9072V27.4707Z" fill="#EAEEF9"/>
<path d="M30.9072 19.9039H28.9783V21.8208H30.9072V19.9039Z" fill="#EAEEF9"/>
<path d="M30.9072 16.0702H28.9783V17.9871H30.9072V16.0702Z" fill="#F3F5FA"/>
<path d="M34.8664 42.705H32.9375V44.6219H34.8664V42.705Z" fill="#EAEEF9"/>
<path d="M34.8664 31.3044H32.9375V33.2213H34.8664V31.3044Z" fill="#F3F5FA"/>
<path d="M34.8664 23.7378H32.9375V25.6547H34.8664V23.7378Z" fill="#EAEEF9"/>
<path d="M38.9272 35.1383H36.9983V37.0552H38.9272V35.1383Z" fill="#EAEEF9"/>
<path d="M38.9272 31.3044H36.9983V33.2213H38.9272V31.3044Z" fill="url(#paint3_linear)"/>
<path d="M38.9272 27.4707H36.9983V29.3876H38.9272V27.4707Z" fill="#F3F5FA"/>
<path d="M42.8864 42.705H40.9575V44.6219H42.8864V42.705Z" fill="#EAEEF9"/>
<path d="M42.8864 38.8712H40.9575V40.7881H42.8864V38.8712Z" fill="#EAEEF9"/>
<path d="M42.8864 35.1383H40.9575V37.0552H42.8864V35.1383Z" fill="#EAEEF9"/>
<path d="M42.8864 31.3044H40.9575V33.2213H42.8864V31.3044Z" fill="#EAEEF9"/>
<path d="M42.8864 19.9039H40.9575V21.8208H42.8864V19.9039Z" fill="#EAEEF9"/>
<path d="M46.8459 42.705H44.917V44.6219H46.8459V42.705Z" fill="#EAEEF9"/>
<path d="M46.8459 35.1383H44.917V37.0552H46.8459V35.1383Z" fill="#EAEEF9"/>
<path d="M46.8459 31.3044H44.917V33.2213H46.8459V31.3044Z" fill="#F3F5FA"/>
<path d="M50.8054 42.705H48.8765V44.6219H50.8054V42.705Z" fill="#EAEEF9"/>
<path d="M50.8054 38.8712H48.8765V40.7881H50.8054V38.8712Z" fill="#F3F5FA"/>
<path d="M50.8054 35.1383H48.8765V37.0552H50.8054V35.1383Z" fill="#EAEEF9"/>
<path d="M50.8054 27.4707H48.8765V29.3876H50.8054V27.4707Z" fill="#EAEEF9"/>
<path d="M54.7646 42.705H52.8357V44.6219H54.7646V42.705Z" fill="url(#paint4_linear)"/>
<path d="M54.7646 38.8712H52.8357V40.7881H54.7646V38.8712Z" fill="#EAEEF9"/>
<path d="M54.7646 35.1383H52.8357V37.0552H54.7646V35.1383Z" fill="#EAEEF9"/>
<path d="M54.7646 31.3044H52.8357V33.2213H54.7646V31.3044Z" fill="#EAEEF9"/>
<path d="M58.7238 42.705H56.7949V44.6219H58.7238V42.705Z" fill="#EAEEF9"/>
<path d="M58.7238 35.1383H56.7949V37.0552H58.7238V35.1383Z" fill="#F3F5FA"/>
<path d="M58.7238 27.4707H56.7949V29.3876H58.7238V27.4707Z" fill="#EAEEF9"/>
<path d="M58.7238 16.0702H56.7949V17.9871H58.7238V16.0702Z" fill="#F3F5FA"/>
<path d="M62.683 42.705H60.7542V44.6219H62.683V42.705Z" fill="#F3F5FA"/>
<path d="M62.683 38.8712H60.7542V40.7881H62.683V38.8712Z" fill="#EAEEF9"/>
<path d="M62.683 23.7378H60.7542V25.6547H62.683V23.7378Z" fill="#EAEEF9"/>
<path d="M66.6425 42.705H64.7136V44.6219H66.6425V42.705Z" fill="#EAEEF9"/>
<path d="M66.6425 38.8712H64.7136V40.7881H66.6425V38.8712Z" fill="url(#paint5_linear)"/>
<path d="M66.6425 35.1383H64.7136V37.0552H66.6425V35.1383Z" fill="#EAEEF9"/>
<path d="M66.6425 31.3044H64.7136V33.2213H66.6425V31.3044Z" fill="#F3F5FA"/>
<path d="M66.6425 27.4707H64.7136V29.3876H66.6425V27.4707Z" fill="url(#paint6_linear)"/>
<path d="M70.7033 38.8712H68.7744V40.7881H70.7033V38.8712Z" fill="#F3F5FA"/>
<path d="M70.7033 31.3044H68.7744V33.2213H70.7033V31.3044Z" fill="#EAEEF9"/>
<path d="M74.6628 42.705H72.7339V44.6219H74.6628V42.705Z" fill="#EAEEF9"/>
<path d="M74.6628 38.8712H72.7339V40.7881H74.6628V38.8712Z" fill="#EAEEF9"/>
<path d="M74.6628 35.1383H72.7339V37.0552H74.6628V35.1383Z" fill="#F3F5FA"/>
<path d="M74.6628 23.7378H72.7339V25.6547H74.6628V23.7378Z" fill="#EAEEF9"/>
<path d="M78.622 42.705H76.6931V44.6219H78.622V42.705Z" fill="#EAEEF9"/>
<path d="M78.622 38.8712H76.6931V40.7881H78.622V38.8712Z" fill="#F3F5FA"/>
<path d="M49.8918 24.0405C52.2467 24.0405 54.1557 22.1434 54.1557 19.8031C54.1557 17.4629 52.2467 15.5658 49.8918 15.5658C47.5369 15.5658 45.6279 17.4629 45.6279 19.8031C45.6279 22.1434 47.5369 24.0405 49.8918 24.0405Z" fill="#EAEEF9"/>
<path d="M57.8103 77.1082H41.9731C41.1609 77.1082 40.5518 76.5029 40.5518 75.6958C40.5518 74.8887 41.1609 74.2833 41.9731 74.2833H57.8103C58.6225 74.2833 59.2316 74.8887 59.2316 75.6958C59.2316 76.5029 58.6225 77.1082 57.8103 77.1082Z" fill="url(#paint7_linear)"/>
<path d="M64.3075 83.3633H35.5771C34.7649 83.3633 34.1558 82.758 34.1558 81.9509C34.1558 81.1438 34.7649 80.5385 35.5771 80.5385H64.3075C65.1196 80.5385 65.7288 81.1438 65.7288 81.9509C65.7288 82.758 65.0181 83.3633 64.3075 83.3633Z" fill="#E3EAF2"/>
<path d="M64.3075 53.1728H35.5771C34.7649 53.1728 34.1558 52.5675 34.1558 51.7604C34.1558 50.9532 34.7649 50.3479 35.5771 50.3479H64.3075C65.1196 50.3479 65.7288 50.9532 65.7288 51.7604C65.7288 52.5675 65.0181 53.1728 64.3075 53.1728Z" fill="#E3EAF2"/>
<path d="M64.3075 59.2331H35.5771C34.7649 59.2331 34.1558 58.6278 34.1558 57.8207C34.1558 57.0135 34.7649 56.4082 35.5771 56.4082H64.3075C65.1196 56.4082 65.7288 57.0135 65.7288 57.8207C65.7288 58.6278 65.0181 59.2331 64.3075 59.2331Z" fill="#E3EAF2"/>
<path d="M64.3075 65.2934H35.5771C34.7649 65.2934 34.1558 64.6881 34.1558 63.881C34.1558 63.0738 34.7649 62.4685 35.5771 62.4685H64.3075C65.1196 62.4685 65.7288 63.0738 65.7288 63.881C65.7288 64.6881 65.0181 65.2934 64.3075 65.2934Z" fill="#E3EAF2"/>
<path d="M55.5768 89.7194H44.308C43.8004 89.7194 43.3943 89.3159 43.3943 88.8114V87.8025C43.3943 87.2981 43.8004 86.8945 44.308 86.8945H55.5768C56.0844 86.8945 56.4905 87.2981 56.4905 87.8025V88.8114C56.4905 89.3159 56.0844 89.7194 55.5768 89.7194Z" fill="#E3EAF2"/>
<defs>
<filter id="filter0_d" x="0.185602" y="0.897122" width="99.4118" height="124.051" filterUnits="userSpaceOnUse" color-interpolation-filters="sRGB">
<feFlood flood-opacity="0" result="BackgroundImageFix"/>
<feColorMatrix in="SourceAlpha" type="matrix" values="0 0 0 0 0 0 0 0 0 0 0 0 0 0 0 0 0 0 127 0"/>
<feOffset dy="9.52329"/>
<feGaussianBlur stdDeviation="9.52329"/>
<feColorMatrix type="matrix" values="0 0 0 0 0.397708 0 0 0 0 0.47749 0 0 0 0 0.575 0 0 0 0.18 0"/>
<feBlend mode="normal" in2="BackgroundImageFix" result="effect1_dropShadow"/>
<feBlend mode="normal" in="SourceGraphic" in2="effect1_dropShadow" result="shape"/>
</filter>
<linearGradient id="paint0_linear" x1="21.0699" y1="36.0766" x2="23.0182" y2="36.0766" gradientUnits="userSpaceOnUse">
<stop stop-color="#FF66A9"/>
<stop offset="1" stop-color="#F53689"/>
</linearGradient>
<linearGradient id="paint1_linear" x1="25.0413" y1="20.8851" x2="26.9896" y2="20.8851" gradientUnits="userSpaceOnUse">
<stop stop-color="#FF66A9"/>
<stop offset="1" stop-color="#F53689"/>
</linearGradient>
<linearGradient id="paint2_linear" x1="29.0131" y1="36.0766" x2="30.9614" y2="36.0766" gradientUnits="userSpaceOnUse">
<stop stop-color="#83A6FF"/>
<stop offset="1" stop-color="#5A78FF"/>
</linearGradient>
<linearGradient id="paint3_linear" x1="36.956" y1="32.2786" x2="38.9042" y2="32.2786" gradientUnits="userSpaceOnUse">
<stop stop-color="#FF66A9"/>
<stop offset="1" stop-color="#F53689"/>
</linearGradient>
<linearGradient id="paint4_linear" x1="52.8421" y1="43.6723" x2="54.7904" y2="43.6723" gradientUnits="userSpaceOnUse">
<stop stop-color="#FF66A9"/>
<stop offset="1" stop-color="#F53689"/>
</linearGradient>
<linearGradient id="paint5_linear" x1="64.7566" y1="39.8745" x2="66.7049" y2="39.8745" gradientUnits="userSpaceOnUse">
<stop stop-color="#FF66A9"/>
<stop offset="1" stop-color="#F53689"/>
</linearGradient>
<linearGradient id="paint6_linear" x1="64.7566" y1="28.4808" x2="66.7049" y2="28.4808" gradientUnits="userSpaceOnUse">
<stop stop-color="#83A6FF"/>
<stop offset="1" stop-color="#5A78FF"/>
</linearGradient>
<linearGradient id="paint7_linear" x1="42.679" y1="75.6995" x2="58.4592" y2="75.6995" gradientUnits="userSpaceOnUse">
<stop stop-color="#FF66A9"/>
<stop offset="1" stop-color="#F53689"/>
</linearGradient>
</defs>
</svg>
