<svg width="122" height="92" viewBox="0 0 122 92" fill="none" xmlns="http://www.w3.org/2000/svg">
<path d="M105.209 44.0665C105.209 54.0405 101.873 63.289 96.2836 70.7241C93.2184 74.7137 89.5221 78.2499 85.2849 80.97C78.4333 85.5036 70.2293 88.1331 61.3943 88.1331C37.1431 88.0424 17.4897 68.2759 17.4897 43.9759C17.4897 19.6758 37.1431 0 61.3042 0C70.1392 0 78.3431 2.62949 85.1947 7.07241C89.4319 9.79257 93.1282 13.3288 96.1934 17.3183C101.873 24.8441 105.209 34.002 105.209 44.0665Z" fill="#EAEEF9"/>
<g filter="url(#filter0_d)">
<path d="M97.4552 31.0097L97.2749 30.9191C97.1848 30.8284 97.0045 30.8284 96.9143 30.7377L94.1196 29.3776L93.4885 29.559C92.4067 29.287 91.2347 29.1963 90.1528 29.1963L33.6268 29.287C29.3896 29.287 25.2426 31.0097 22.2676 34.0926C19.2925 37.1754 17.5796 41.2557 17.5796 45.5172C17.5796 50.5042 19.8334 55.0378 23.4395 57.9393L23.0789 58.302L26.5949 60.0247C26.6851 60.1154 26.7752 60.1154 26.9555 60.2061L27.1358 60.2968C29.2093 61.2035 31.4632 61.7475 33.8071 61.7475H54.5424H90.3332C93.4885 61.7475 96.6439 60.7501 99.2583 59.0273C100.16 58.3926 100.971 57.7579 101.692 56.9419C104.668 53.859 106.38 49.7788 106.38 45.4266C106.2 39.1702 102.684 33.7299 97.4552 31.0097Z" fill="#D1196E"/>
</g>
<path d="M103.225 43.8852C103.225 48.1468 101.512 52.3177 98.5371 55.4005C97.8159 56.1259 96.9143 56.8513 96.103 57.486C93.4885 59.2088 90.4233 60.2062 87.1778 60.2062H51.387H30.6518C21.7267 60.2062 14.5144 52.9524 14.5144 44.0665C14.5144 39.805 16.2273 35.6341 19.2024 32.6419C22.2676 29.559 26.3245 27.8363 30.5617 27.8363L87.0877 27.7456C95.9227 27.7456 103.135 34.9994 103.225 43.8852Z" fill="url(#paint0_linear)"/>
<path d="M97.0948 31.191C100.43 33.6392 102.774 37.5381 103.406 41.709C104.037 45.8799 102.865 50.3228 100.43 53.6777C99.1683 55.4004 97.6357 56.8512 95.8327 57.9393C94.0296 59.0273 92.0462 59.8434 89.9727 60.1154C88.981 60.2967 87.8992 60.3874 86.8174 60.3874H83.7522H77.5316H52.8296L40.4787 60.2967H34.2581H31.1929C30.2012 60.2967 29.1194 60.206 28.1277 60.0247V59.8434C29.1194 60.0247 30.2012 60.0247 31.1929 60.0247H34.2581H40.4787L52.8296 59.934L77.5316 59.8434H83.7522H86.8174C87.8091 59.8434 88.8909 59.7527 89.8826 59.5713C91.8659 59.2087 93.8493 58.4833 95.5622 57.3952C97.2751 56.3072 98.8077 54.8564 99.9797 53.2243C101.152 51.5922 102.053 49.6881 102.504 47.6933C103.045 45.6985 103.135 43.6131 102.865 41.6183C102.594 39.6235 101.963 37.6287 100.971 35.8153C99.8896 34.1832 98.5373 32.6418 97.0948 31.191Z" fill="#FF57A6"/>
<path d="M96.0127 57.486C93.3983 59.2087 90.3331 60.2061 87.0876 60.2061H51.2968L41.6504 50.5042L43.183 48.9628L44.6254 39.8956L50.3051 40.1676L55.7143 45.608L56.0749 40.9837L56.706 38.7169L62.8364 44.8826L64.2788 38.7169L71.4911 45.9706L68.8766 39.8956L69.0569 38.6262L72.5729 42.1624L74.9169 40.8023L77.2609 38.6262L96.0127 57.486Z" fill="url(#paint1_linear)"/>
<path d="M41.6504 50.5042V38.6262H46.9694C49.4937 38.6262 51.0263 40.1676 51.0263 41.7997C51.0263 43.6132 49.4937 44.2479 49.4937 44.2479C49.4937 44.2479 51.5672 44.8826 51.5672 47.0587C51.5672 48.8721 49.8543 50.5042 47.2399 50.5042H41.6504ZM44.8057 41.165V43.1598H46.6088C47.33 43.1598 47.6906 42.7065 47.6906 42.1624C47.6906 41.6184 47.2399 41.165 46.6088 41.165H44.8057ZM46.9694 47.9654C47.6906 47.9654 48.2316 47.4214 48.2316 46.7867C48.2316 46.152 47.6906 45.608 46.9694 45.608H44.8057V47.9654H46.9694Z" fill="url(#paint2_linear)"/>
<path d="M61.1236 45.608V38.6262H64.3692V45.608C64.3692 48.6001 62.1153 50.8669 58.96 50.8669C55.8046 50.8669 53.5508 48.6001 53.5508 45.608V38.6262H56.7963V45.608C56.7963 46.968 57.788 47.9654 58.96 47.9654C60.132 47.9654 61.1236 46.968 61.1236 45.608Z" fill="url(#paint3_linear)"/>
<path d="M77.2609 38.6262L73.0237 46.2427V50.5042H69.7782V46.2427L65.541 38.6262H68.9668L71.3108 43.2505L73.6548 38.6262H77.2609Z" fill="url(#paint4_linear)"/>
<path d="M107.353 58.2372V74.1987C107.353 77.6983 104.572 80.5151 101.117 80.5151H90.7508C89.7394 80.5151 88.7281 80.1737 87.8853 79.4908C85.4413 77.4423 80.1319 72.8331 79.2048 71.2966C78.952 70.8699 78.7834 70.3577 78.7834 69.8456V60.2857C81.6489 60.2857 83.9243 62.5903 83.9243 65.4924V69.3335H84.8514V46.7141C84.8514 45.2631 86.0313 44.1534 87.3797 44.1534C88.8124 44.1534 89.908 45.3484 89.908 46.7141V57.725H90.7508V54.0547C90.7508 52.6037 91.9306 51.4941 93.2791 51.4941C94.7118 51.4941 95.8074 52.689 95.8074 54.0547V57.8104H96.8187V56.0179C96.8187 54.6522 97.9143 53.628 99.1785 53.628C100.527 53.628 101.538 54.7376 101.538 56.0179V57.8958H102.634C102.802 56.7861 103.814 55.8472 104.994 55.8472C106.258 55.8472 107.353 56.9568 107.353 58.2372Z" fill="white" stroke="#1C3754" stroke-width="1.21898" stroke-miterlimit="10" stroke-linecap="round" stroke-linejoin="round"/>
<path d="M88.1699 39.6237V35.5435" stroke="white" stroke-width="1.82838" stroke-miterlimit="10" stroke-linecap="round" stroke-linejoin="round"/>
<path d="M92.6775 41.5277L95.5624 38.5355" stroke="white" stroke-width="1.82838" stroke-miterlimit="10" stroke-linecap="round" stroke-linejoin="round"/>
<path d="M83.1214 41.5278L81.679 40.077" stroke="white" stroke-width="1.82838" stroke-miterlimit="10" stroke-linecap="round" stroke-linejoin="round"/>
<path d="M93.9395 46.2427H96.8244" stroke="white" stroke-width="1.82838" stroke-miterlimit="10" stroke-linecap="round" stroke-linejoin="round"/>
<path d="M63.2874 12.2407C62.476 12.2407 61.845 11.606 61.845 10.79V3.5362C61.845 2.72015 62.476 2.08545 63.2874 2.08545C64.0988 2.08545 64.7299 2.72015 64.7299 3.5362V10.79C64.6397 11.606 64.0086 12.2407 63.2874 12.2407Z" fill="url(#paint5_linear)"/>
<path d="M119.813 65.1025C119.723 65.1025 119.543 65.1025 119.453 65.0118L112.511 63.1077C111.79 62.9263 111.339 62.1103 111.519 61.3849C111.7 60.6595 112.511 60.2062 113.232 60.3875L120.174 62.2916C120.895 62.473 121.346 63.289 121.166 64.0144C120.985 64.6491 120.354 65.1025 119.813 65.1025Z" fill="url(#paint6_linear)"/>
<path d="M6.76155 59.8436C6.13048 59.8436 5.49941 59.3902 5.40926 58.6648C5.22895 57.8488 5.76987 57.1234 6.58125 57.0327L9.10553 56.5794C9.91691 56.398 10.6381 56.9421 10.7283 57.7581C10.9086 58.5742 10.3677 59.2995 9.5563 59.3902L7.03201 59.8436C6.94186 59.8436 6.85171 59.8436 6.76155 59.8436Z" fill="url(#paint7_linear)"/>
<path d="M1.4423 60.9316C0.811226 60.9316 0.180154 60.4783 0.0900013 59.7529C-0.090305 58.9369 0.360461 58.2115 1.17184 58.0301L1.98322 57.8488C2.7946 57.6674 3.51582 58.2115 3.60597 59.0275C3.78628 59.8436 3.24536 60.5689 2.52414 60.7503L1.71276 60.9316C1.6226 60.841 1.53245 60.9316 1.4423 60.9316Z" fill="url(#paint8_linear)"/>
<path d="M15.5962 26.4762C15.5061 26.4762 15.3258 26.3856 15.2356 26.2949L6.67107 20.5826C6.04 20.1292 5.85969 19.2225 6.31046 18.5878C6.76122 17.9531 7.66275 17.7717 8.29382 18.2251L16.8584 23.9374C17.4894 24.3908 17.6697 25.2975 17.219 25.9322C16.8584 26.4762 16.2273 26.6576 15.5962 26.4762Z" fill="url(#paint9_linear)"/>
<path d="M110.708 36.0875C110.077 36.0875 109.445 35.6341 109.355 34.9087C109.175 34.0927 109.716 33.3673 110.527 33.2766L117.559 32.0072C118.371 31.8259 119.092 32.3699 119.182 33.186C119.362 34.002 118.821 34.7274 118.01 34.8181L110.978 36.0875C110.798 36.0875 110.798 36.0875 110.708 36.0875Z" fill="url(#paint10_linear)"/>
<path d="M87.7188 21.58C87.3582 21.58 87.0877 21.4893 86.8173 21.2173C86.1862 20.6732 86.1862 19.7665 86.7271 19.2225L90.5135 14.8702C91.0545 14.3262 91.956 14.2355 92.4969 14.7796C93.128 15.3236 93.128 16.2303 92.5871 16.7744L88.8006 21.1266C88.5302 21.3986 88.1696 21.58 87.7188 21.58Z" fill="url(#paint11_linear)"/>
<path d="M94.931 13.4195C94.5704 13.4195 94.3 13.3288 94.0295 13.0568C93.4886 12.5127 93.3984 11.606 93.9393 11.062L95.8326 8.88587C96.3735 8.34184 97.275 8.25116 97.8159 8.7952C98.3568 9.33923 98.447 10.2459 97.9061 10.79L96.0129 12.9661C95.7424 13.2381 95.2916 13.4195 94.931 13.4195Z" fill="url(#paint12_linear)"/>
<path d="M58.1485 75.5297C58.4189 75.3484 58.7795 75.2577 59.1401 75.2577C59.9515 75.3484 60.4924 75.9831 60.4023 76.7991L59.9515 82.5114C59.8614 83.3275 59.2303 83.8715 58.4189 83.7809C57.6075 83.6902 57.0666 83.0555 57.1568 82.2394L57.6075 76.5271C57.6075 76.1644 57.7878 75.8017 58.1485 75.5297Z" fill="url(#paint13_linear)"/>
<path d="M57.3372 86.4103C57.6077 86.229 57.9683 86.1383 58.3289 86.1383C59.1403 86.229 59.6812 86.8637 59.591 87.6797L59.4107 90.4906C59.3206 91.3066 58.6895 91.8506 57.8781 91.76C57.0668 91.6693 56.5258 91.0346 56.616 90.2185L56.7963 87.4077C56.7963 87.045 56.9766 86.5917 57.3372 86.4103Z" fill="url(#paint14_linear)"/>
<path d="M29.4799 72.9908C29.8405 72.9908 30.111 73.0815 30.3814 73.3535C31.0125 73.8976 31.0125 74.8043 30.4716 75.3483L26.6851 79.7006C26.1442 80.2446 25.2427 80.3353 24.7018 79.7912C24.0707 79.2472 24.0707 78.3405 24.6116 77.7965L28.3981 73.4442C28.6685 73.1722 29.1193 72.9908 29.4799 72.9908Z" fill="url(#paint15_linear)"/>
<path d="M37.8641 19.9478C37.4133 19.9478 36.9626 19.7665 36.6921 19.3131L34.258 15.7769C33.8072 15.1422 33.9875 14.2355 34.6186 13.7821C35.2497 13.3288 36.1512 13.5101 36.6019 14.1448L39.1262 17.681C39.577 18.3157 39.3967 19.2224 38.7656 19.6758C38.405 19.8571 38.1345 19.9478 37.8641 19.9478Z" fill="url(#paint16_linear)"/>
<defs>
<filter id="filter0_d" x="8.92206" y="28.3305" width="106.116" height="49.8663" filterUnits="userSpaceOnUse" color-interpolation-filters="sRGB">
<feFlood flood-opacity="0" result="BackgroundImageFix"/>
<feColorMatrix in="SourceAlpha" type="matrix" values="0 0 0 0 0 0 0 0 0 0 0 0 0 0 0 0 0 0 127 0"/>
<feOffset dy="7.79178"/>
<feGaussianBlur stdDeviation="4.32877"/>
<feColorMatrix type="matrix" values="0 0 0 0 0.968627 0 0 0 0 0.254902 0 0 0 0 0.564706 0 0 0 0.36 0"/>
<feBlend mode="normal" in2="BackgroundImageFix" result="effect1_dropShadow"/>
<feBlend mode="normal" in="SourceGraphic" in2="effect1_dropShadow" result="shape"/>
</filter>
<linearGradient id="paint0_linear" x1="25.1067" y1="33.3315" x2="98.2628" y2="55.4082" gradientUnits="userSpaceOnUse">
<stop stop-color="#FF66A9"/>
<stop offset="1" stop-color="#F53689"/>
</linearGradient>
<linearGradient id="paint1_linear" x1="68.8181" y1="39.9582" x2="68.8181" y2="58.2958" gradientUnits="userSpaceOnUse">
<stop stop-color="#E81778"/>
<stop offset="1" stop-color="#E01F79" stop-opacity="0"/>
</linearGradient>
<linearGradient id="paint2_linear" x1="71.3091" y1="57.5295" x2="46.3051" y2="45.3993" gradientUnits="userSpaceOnUse">
<stop offset="0.0113208" stop-color="#FFC9E3"/>
<stop offset="1" stop-color="white"/>
</linearGradient>
<linearGradient id="paint3_linear" x1="74.3307" y1="51.3013" x2="49.3268" y2="39.1711" gradientUnits="userSpaceOnUse">
<stop offset="0.0113208" stop-color="#FFC9E3"/>
<stop offset="1" stop-color="white"/>
</linearGradient>
<linearGradient id="paint4_linear" x1="76.8219" y1="46.1661" x2="51.8179" y2="34.036" gradientUnits="userSpaceOnUse">
<stop offset="0.0113208" stop-color="#FFC9E3"/>
<stop offset="1" stop-color="white"/>
</linearGradient>
<linearGradient id="paint5_linear" x1="61.8314" y1="7.18239" x2="64.6614" y2="7.18239" gradientUnits="userSpaceOnUse">
<stop stop-color="#FF66A9"/>
<stop offset="1" stop-color="#F53689"/>
</linearGradient>
<linearGradient id="paint6_linear" x1="111.439" y1="62.6827" x2="121.186" y2="62.6827" gradientUnits="userSpaceOnUse">
<stop stop-color="#FF66A9"/>
<stop offset="1" stop-color="#F53689"/>
</linearGradient>
<linearGradient id="paint7_linear" x1="5.35084" y1="58.2145" x2="10.7114" y2="58.2145" gradientUnits="userSpaceOnUse">
<stop stop-color="#FF66A9"/>
<stop offset="1" stop-color="#F53689"/>
</linearGradient>
<linearGradient id="paint8_linear" x1="-0.000151851" y1="59.3952" x2="3.65384" y2="59.3952" gradientUnits="userSpaceOnUse">
<stop stop-color="#FF66A9"/>
<stop offset="1" stop-color="#F53689"/>
</linearGradient>
<linearGradient id="paint9_linear" x1="5.77201" y1="20.2545" x2="17.8582" y2="24.2188" gradientUnits="userSpaceOnUse">
<stop stop-color="#FF66A9"/>
<stop offset="1" stop-color="#F53689"/>
</linearGradient>
<linearGradient id="paint10_linear" x1="109.259" y1="34.0175" x2="119.149" y2="34.0175" gradientUnits="userSpaceOnUse">
<stop stop-color="#FF66A9"/>
<stop offset="1" stop-color="#F53689"/>
</linearGradient>
<linearGradient id="paint11_linear" x1="86.3402" y1="17.9809" x2="92.9469" y2="17.9809" gradientUnits="userSpaceOnUse">
<stop stop-color="#FF66A9"/>
<stop offset="1" stop-color="#F53689"/>
</linearGradient>
<linearGradient id="paint12_linear" x1="93.5269" y1="10.917" x2="98.2352" y2="10.917" gradientUnits="userSpaceOnUse">
<stop stop-color="#FF66A9"/>
<stop offset="1" stop-color="#F53689"/>
</linearGradient>
<linearGradient id="paint13_linear" x1="57.151" y1="79.5405" x2="60.4036" y2="79.5405" gradientUnits="userSpaceOnUse">
<stop stop-color="#FF66A9"/>
<stop offset="1" stop-color="#F53689"/>
</linearGradient>
<linearGradient id="paint14_linear" x1="56.524" y1="88.9591" x2="59.5647" y2="88.9591" gradientUnits="userSpaceOnUse">
<stop stop-color="#FF66A9"/>
<stop offset="1" stop-color="#F53689"/>
</linearGradient>
<linearGradient id="paint15_linear" x1="24.286" y1="76.5523" x2="30.8957" y2="76.5523" gradientUnits="userSpaceOnUse">
<stop stop-color="#FF66A9"/>
<stop offset="1" stop-color="#F53689"/>
</linearGradient>
<linearGradient id="paint16_linear" x1="33.9689" y1="16.7536" x2="39.2857" y2="16.7536" gradientUnits="userSpaceOnUse">
<stop stop-color="#FF66A9"/>
<stop offset="1" stop-color="#F53689"/>
</linearGradient>
</defs>
</svg>
