<svg width="105" height="108" viewBox="0 0 105 108" fill="none" xmlns="http://www.w3.org/2000/svg">
<path d="M93.7389 48.2857C93.7389 58.8034 90.2123 68.5561 84.303 76.3966C81.0624 80.6037 77.1545 84.3327 72.6749 87.2011C65.4311 91.9819 56.7577 94.7547 47.4171 94.7547C21.7781 94.7547 1 73.9106 1 48.2857C1 22.5652 21.7781 1.81665 47.3218 1.81665C56.6624 1.81665 65.3358 4.58949 72.5796 9.27464C77.0592 12.1431 80.967 15.8721 84.2077 20.0792C90.2123 28.0152 93.7389 37.768 93.7389 48.2857Z" fill="#EAEEF9"/>
<path d="M3.28764 16.4457C4.14545 16.4457 4.81264 15.6808 4.81264 14.8203C4.81264 13.9597 4.14545 13.1948 3.19233 13.1948C2.33452 13.1948 1.57202 13.8641 1.57202 14.8203C1.66733 15.6808 2.42983 16.4457 3.28764 16.4457Z" fill="url(#paint0_linear)"/>
<path d="M3.383 89.0178C4.24082 89.0178 5.00331 88.3485 5.00331 87.3923C5.00331 86.5318 4.33613 85.7668 3.383 85.7668C2.52519 85.7668 1.7627 86.4362 1.7627 87.3923C1.85801 88.2528 2.52519 89.0178 3.383 89.0178Z" fill="url(#paint1_linear)"/>
<path d="M99.1718 34.1346C100.601 32.796 100.697 30.5969 99.3624 29.1626C98.0281 27.7284 95.8359 27.6328 94.3109 28.9714C92.8812 30.31 92.7859 32.5092 94.1202 33.9434C95.4546 35.282 97.7421 35.3776 99.1718 34.1346Z" fill="#EAEEF9"/>
<path d="M98.4093 18.5493C99.2671 18.5493 99.9343 17.88 99.9343 17.0195C99.9343 16.1589 99.2671 15.4896 98.4093 15.4896C97.5515 15.4896 96.8843 16.1589 96.8843 17.0195C96.8843 17.88 97.5515 18.5493 98.4093 18.5493Z" fill="url(#paint2_linear)"/>
<path d="M62.5718 88.1573C62.5718 91.6951 59.7125 94.6592 56.0906 94.6592H21.4922C17.9657 94.6592 15.011 91.7907 15.011 88.1573V6.50184C15.011 2.96407 17.8704 0 21.4922 0H56.3765C59.9031 0 62.8578 2.86846 62.8578 6.50184V88.2529H62.5718V88.1573Z" fill="white"/>
<path d="M56.3765 0C59.9031 0 62.8578 2.86846 62.8578 6.50184V88.4442C62.8578 91.9819 59.9984 94.946 56.3765 94.946H21.4922C17.9657 94.946 15.011 92.0776 15.011 88.4442V6.50184C15.011 2.96408 17.8704 0 21.4922 0H56.3765Z" fill="#1C3754"/>
<path d="M59.522 6.21496V88.1573C59.522 89.5915 58.6642 90.7389 57.3298 91.1214C57.0439 91.217 56.7579 91.217 56.3767 91.217H21.4924C21.3018 91.217 21.1111 91.217 21.0158 91.217C19.4908 90.9301 18.4424 89.6871 18.4424 88.1573V6.50181C18.4424 4.87635 19.4908 3.63335 21.0158 3.44212C21.2064 3.44212 21.3018 3.44212 21.4924 3.44212H26.6392C27.3064 3.44212 27.783 3.9202 27.783 4.5895C27.783 5.92812 28.9267 7.0755 30.2611 7.0755H47.9892C49.3236 7.0755 50.4673 5.92812 50.4673 4.5895C50.372 3.82458 50.8486 3.3465 51.5158 3.3465H56.3767V3.15527C56.6626 3.15527 57.0439 3.15527 57.3298 3.25089C58.6642 3.63335 59.522 4.78073 59.522 6.21496Z" fill="white"/>
<path d="M41.9845 4.20702H37.3142C36.8376 4.20702 36.647 3.72895 36.647 3.53772C36.647 3.05964 37.1235 2.86841 37.3142 2.86841H41.9845C42.461 2.86841 42.6516 3.34648 42.6516 3.53772C42.6516 4.01579 42.3657 4.20702 41.9845 4.20702Z" fill="#2D5887"/>
<path d="M34.6454 4.20702H34.4548C33.9782 4.20702 33.7876 3.72895 33.7876 3.53772C33.7876 3.05964 34.2642 2.86841 34.4548 2.86841H34.6454C35.122 2.86841 35.3126 3.34648 35.3126 3.53772C35.3126 4.01579 35.122 4.20702 34.6454 4.20702Z" fill="#2D5887"/>
<path d="M54.3749 69.7035H23.9703C22.35 69.7035 21.0156 68.3649 21.0156 66.7395V28.589C21.0156 26.9635 22.35 25.6249 23.9703 25.6249H54.3749C55.9953 25.6249 57.3296 26.9635 57.3296 28.589V66.7395C57.3296 68.3649 55.9953 69.7035 54.3749 69.7035Z" fill="white"/>
<path d="M54.3749 69.7035H23.9703C22.35 69.7035 21.0156 68.3649 21.0156 66.7395V28.589C21.0156 26.9635 22.35 25.6249 23.9703 25.6249H54.3749C55.9953 25.6249 57.3296 26.9635 57.3296 28.589V66.7395C57.3296 68.3649 55.9953 69.7035 54.3749 69.7035Z" fill="#F5F7FD" stroke="#E4E8F5" stroke-width="0.852161" stroke-linecap="round" stroke-linejoin="round" stroke-dasharray="1.71 1.71"/>
<path d="M57.3296 3.25089V18.2625C57.3296 19.888 55.9953 21.2266 54.3749 21.2266H23.9703C22.35 21.2266 21.0156 19.888 21.0156 18.2625V3.3465C21.2062 3.3465 21.3016 3.3465 21.4922 3.3465H26.6391C27.3062 3.3465 27.7828 3.82458 27.7828 4.49389C27.7828 5.8325 28.9265 6.97989 30.2609 6.97989H47.989C49.3234 6.97989 50.4671 5.8325 50.4671 4.49389C50.3718 3.82458 50.8484 3.3465 51.5156 3.3465H56.3765V3.15527C56.7577 3.15527 57.0437 3.15527 57.3296 3.25089Z" fill="#EAEEF9"/>
<path d="M57.3296 76.8746V91.2169C57.0437 91.3125 56.7577 91.3125 56.3765 91.3125H21.4922C21.3016 91.3125 21.1109 91.3125 21.0156 91.3125V76.8746C21.0156 75.2491 22.35 73.9105 23.9703 73.9105H54.3749C55.9953 73.9105 57.3296 75.2491 57.3296 76.8746Z" fill="#EAEEF9"/>
<g filter="url(#filter0_d)">
<path d="M74.5788 72.8406H39.1035C36.2272 72.8406 33.8987 70.5047 33.8987 67.6192V24.0617C33.8987 21.1762 36.2272 18.8403 39.1035 18.8403H74.5788C77.4551 18.8403 79.7836 21.1762 79.7836 24.0617V67.6192C79.7836 70.5047 77.4551 72.8406 74.5788 72.8406Z" fill="white"/>
</g>
<path d="M68.2781 58.8253H40.8841C40.1993 58.8253 39.5144 58.2757 39.5144 57.7261C39.5144 57.039 40.0623 56.6268 40.8841 56.6268H68.2781C68.9629 56.6268 69.6478 57.1765 69.6478 57.7261C69.5108 58.2757 68.9629 58.8253 68.2781 58.8253Z" fill="url(#paint3_linear)"/>
<path d="M51.7047 65.4208H40.7471C40.0623 65.4208 39.3774 64.8712 39.3774 64.3215C39.3774 63.6345 39.9253 63.2223 40.7471 63.2223H51.7047C52.3896 63.2223 53.0744 63.7719 53.0744 64.3215C52.9375 64.8712 52.3896 65.4208 51.7047 65.4208Z" fill="url(#paint4_linear)"/>
<path d="M72.7981 49.8939H41.295C40.4732 49.8939 39.9253 49.2069 39.9253 48.5199V26.8098C39.9253 25.9854 40.6101 25.4358 41.295 25.4358H72.7981C73.6199 25.4358 74.1678 26.1228 74.1678 26.8098V48.5199C74.1678 49.3443 73.4829 49.8939 72.7981 49.8939Z" fill="#E6ECF5"/>
<path d="M57.5943 44.6725H46.2258L51.9786 38.2145L57.5943 44.6725Z" fill="#CED7E2"/>
<path d="M67.0453 44.6725H50.7458L58.8271 35.329L67.0453 44.6725Z" fill="white"/>
<path d="M50.609 35.8787C51.8193 35.8787 52.8005 34.8944 52.8005 33.6802C52.8005 32.466 51.8193 31.4817 50.609 31.4817C49.3987 31.4817 48.4175 32.466 48.4175 33.6802C48.4175 34.8944 49.3987 35.8787 50.609 35.8787Z" fill="url(#paint5_linear)"/>
<path d="M63.0483 11.0913C63.3343 13.5773 61.2374 16.4457 58.2827 16.4457C55.7093 16.4457 53.5171 14.0553 53.5171 11.3781V11.4737C53.4218 14.629 50.8523 16.188 48.1836 15.5187H47.8937C45.9874 15.1362 43.9859 14.0553 43.9859 11.5693C43.9859 14.2466 41.889 16.4457 39.2203 16.4457C36.5515 16.4457 34.4546 13.9597 34.4546 11.3781C34.4546 14.0553 32.2625 16.4457 29.689 16.4457C27.0203 16.4457 24.9234 14.2466 24.9234 11.5693C24.9234 14.151 22.8265 16.4457 20.1578 16.4457C17.489 16.4457 15.2015 14.2466 15.3922 11.0913C15.3922 8.22281 14.725 9.56143 20.7297 2.67712H57.8062C63.5249 9.46581 63.0483 8.03158 63.0483 11.0913Z" fill="url(#paint6_linear)"/>
<path d="M34.5499 11.9516C34.5499 11.7603 34.5499 11.4735 34.5499 11.2823C34.5499 13.9595 32.3577 16.4455 29.689 16.4455C27.0202 16.4455 24.9233 14.2463 24.9233 11.5691C24.9233 11.6647 24.9233 11.7603 24.9233 11.8559C25.0187 8.31818 24.4468 10.0393 27.9733 3.63303L28.6405 2.67688H36.4561C34.0733 10.2305 34.4546 8.03134 34.5499 11.9516Z" fill="white"/>
<path d="M53.5171 11.4738C53.5171 14.7247 50.4671 16.8282 47.8936 16.2545H47.7983C45.7015 15.8721 43.9858 13.7685 43.9858 11.2825C43.9858 8.22285 44.2718 9.65708 42.0796 2.58154H49.8952L50.5624 3.5377C53.7077 9.56146 53.5171 8.31846 53.5171 11.4738Z" fill="white"/>
<path d="M102.794 73.9106L99.2672 92.0776C98.9812 93.703 97.6469 94.8504 96.0265 94.8504H68.0047C66.3844 94.8504 65.05 93.703 64.7641 92.0776L61.2375 73.9106" fill="white"/>
<path d="M102.793 73.9106L102.507 75.4405V75.6317L99.3621 92.0776C99.0762 93.703 97.7418 94.8504 96.1215 94.8504H68.0044C66.3841 94.8504 65.0497 93.703 64.7638 92.0776L61.6185 75.6317V75.4405L61.3325 73.9106H102.793Z" fill="url(#paint7_linear)"/>
<path d="M102.794 73.9106L102.508 75.4405H61.6188L61.2375 73.9106H102.794Z" fill="#526DFF"/>
<path d="M62.5718 73.9106H61.5233C60.2843 73.9106 59.2358 72.9545 59.2358 71.8071V69.6079C59.2358 68.4606 60.2843 67.5044 61.5233 67.5044H102.603C103.842 67.5044 104.89 68.4606 104.89 69.6079V71.8071C104.89 72.9545 103.842 73.9106 102.603 73.9106H101.555" fill="url(#paint8_linear)"/>
<path d="M70.0061 78.6917C69.9108 78.2136 69.4342 77.9267 68.9577 78.0223C68.4811 78.118 68.1952 78.596 68.2905 79.0741L70.4827 90.0699C70.6733 91.2173 72.4842 90.9304 72.1983 89.6874L70.0061 78.6917Z" fill="url(#paint9_linear)"/>
<path d="M76.0107 78.787C75.9154 78.3089 75.5341 77.9265 74.9623 78.0221C74.4857 78.1177 74.1044 78.5001 74.1998 79.0738C74.4857 81.3686 75.4388 87.6792 75.7248 90.0696C75.9154 91.217 77.631 91.0258 77.4404 89.7828C77.4404 88.731 76.2013 80.03 76.0107 78.787Z" fill="url(#paint10_linear)"/>
<path d="M81.1577 78.8825V89.8783C81.1577 91.0257 82.9687 91.0257 82.9687 89.8783V78.8825C82.9687 77.7351 81.1577 77.7351 81.1577 78.8825Z" fill="url(#paint11_linear)"/>
<path d="M88.1155 78.7869C87.353 84.4282 87.6389 81.8466 86.5905 89.7827C86.3998 90.9301 88.2108 91.2169 88.3061 90.0695L89.1639 83.6633C89.1639 83.5677 89.1639 83.5677 89.1639 83.4721L89.7358 79.0738C90.0217 77.8308 88.2108 77.6395 88.1155 78.7869Z" fill="url(#paint12_linear)"/>
<path d="M94.0248 78.6914C93.7389 80.1257 91.9279 89.1135 91.8326 89.6872C91.642 90.8346 93.3576 91.217 93.5482 90.0697L95.7404 79.0739C96.0264 77.9265 94.3107 77.5441 94.0248 78.6914Z" fill="url(#paint13_linear)"/>
<g filter="url(#filter1_d)">
<path d="M68.5244 48.9571C69.3385 48.9571 69.9898 49.6084 69.9898 50.4225V59.8658C69.9898 61.9825 68.3616 63.6106 66.245 63.6106H60.058C59.4067 63.6106 58.7554 63.4478 58.4298 62.9594C56.9644 61.6568 53.8709 59.0518 53.2197 58.0749C53.0569 57.7492 52.894 57.5864 52.894 57.2608V55.1442C52.894 53.8416 53.8709 52.8647 55.1735 52.8647H55.9875V56.9352H56.476V48.4687C56.476 47.6546 57.1273 47.0033 57.9414 47.0033C58.7554 47.0033 59.4067 47.6546 59.4067 48.4687V50.0969H59.8951V47.9802C59.8951 47.1662 60.5464 46.5149 61.3605 46.5149C62.1746 46.5149 62.8259 47.1662 62.8259 47.9802V50.0969H63.4771V48.9571C63.4771 48.1431 64.1284 47.4918 64.9425 47.4918C65.7565 47.4918 66.4078 48.1431 66.4078 48.9571V50.0969H67.0591C67.2219 49.4456 67.7104 48.9571 68.5244 48.9571Z" fill="white"/>
<path d="M68.5244 48.9571C69.3385 48.9571 69.9898 49.6084 69.9898 50.4225V59.8658C69.9898 61.9825 68.3616 63.6106 66.245 63.6106H60.058C59.4067 63.6106 58.7554 63.4478 58.4298 62.9594C56.9644 61.6568 53.8709 59.0518 53.2197 58.0749C53.0569 57.7492 52.894 57.5864 52.894 57.2608V55.1442C52.894 53.8416 53.8709 52.8647 55.1735 52.8647H55.9875V56.9352H56.476V48.4687C56.476 47.6546 57.1273 47.0033 57.9414 47.0033C58.7554 47.0033 59.4067 47.6546 59.4067 48.4687V50.0969H59.8951V47.9802C59.8951 47.1662 60.5464 46.5149 61.3605 46.5149C62.1746 46.5149 62.8259 47.1662 62.8259 47.9802V50.0969H63.4771V48.9571C63.4771 48.1431 64.1284 47.4918 64.9425 47.4918C65.7565 47.4918 66.4078 48.1431 66.4078 48.9571V50.0969H67.0591C67.2219 49.4456 67.7104 48.9571 68.5244 48.9571Z" stroke="#1C3754" stroke-width="1.21898" stroke-miterlimit="10" stroke-linecap="round" stroke-linejoin="round"/>
</g>
<path d="M53.0407 80.0299V91.3126H25.4001V80.0299C25.4001 79.3606 25.8767 78.8826 26.5439 78.8826H51.9923C52.4688 78.8826 53.0407 79.3606 53.0407 80.0299Z" fill="white"/>
<path d="M36.933 91.3126H33.2158L35.1221 89.2091L36.8377 91.217L36.933 91.3126Z" fill="#CED7E2"/>
<path d="M44.5579 91.3126H36.8376V91.217L40.6501 86.9143L44.5579 91.3126Z" fill="#EAEEF9"/>
<path d="M33.9783 87.2968C34.9258 87.2968 35.6939 86.5262 35.6939 85.5757C35.6939 84.6252 34.9258 83.8546 33.9783 83.8546C33.0308 83.8546 32.2627 84.6252 32.2627 85.5757C32.2627 86.5262 33.0308 87.2968 33.9783 87.2968Z" fill="#CED7E2"/>
<path opacity="0.2" d="M62.9529 9.17906H15.3921C15.4874 8.7966 15.5827 8.50975 15.8687 8.22291L20.6343 2.5816H57.7108L62.4764 8.22291C62.7623 8.50975 62.8576 8.7966 62.9529 9.17906Z" fill="url(#paint14_linear)"/>
<path d="M8.625 95.2328H103.747" stroke="#B1B9CC" stroke-width="1.73151" stroke-miterlimit="10" stroke-linecap="round" stroke-linejoin="round"/>
<path d="M1.66724 95.2328H5.2891" stroke="#B1B9CC" stroke-width="1.73151" stroke-miterlimit="10" stroke-linecap="round" stroke-linejoin="round"/>
<defs>
<filter id="filter0_d" x="14.8521" y="15.3773" width="83.9781" height="92.0935" filterUnits="userSpaceOnUse" color-interpolation-filters="sRGB">
<feFlood flood-opacity="0" result="BackgroundImageFix"/>
<feColorMatrix in="SourceAlpha" type="matrix" values="0 0 0 0 0 0 0 0 0 0 0 0 0 0 0 0 0 0 127 0"/>
<feOffset dy="15.5836"/>
<feGaussianBlur stdDeviation="9.52329"/>
<feColorMatrix type="matrix" values="0 0 0 0 0.397708 0 0 0 0 0.47749 0 0 0 0 0.575 0 0 0 0.35 0"/>
<feBlend mode="normal" in2="BackgroundImageFix" result="effect1_dropShadow"/>
<feBlend mode="normal" in="SourceGraphic" in2="effect1_dropShadow" result="shape"/>
</filter>
<filter id="filter1_d" x="47.0901" y="45.0396" width="28.7038" height="28.7038" filterUnits="userSpaceOnUse" color-interpolation-filters="sRGB">
<feFlood flood-opacity="0" result="BackgroundImageFix"/>
<feColorMatrix in="SourceAlpha" type="matrix" values="0 0 0 0 0 0 0 0 0 0 0 0 0 0 0 0 0 0 127 0"/>
<feOffset dy="4.32877"/>
<feGaussianBlur stdDeviation="2.59726"/>
<feColorMatrix type="matrix" values="0 0 0 0 0.397708 0 0 0 0 0.47749 0 0 0 0 0.575 0 0 0 0.28 0"/>
<feBlend mode="normal" in2="BackgroundImageFix" result="effect1_dropShadow"/>
<feBlend mode="normal" in="SourceGraphic" in2="effect1_dropShadow" result="shape"/>
</filter>
<linearGradient id="paint0_linear" x1="1.6762" y1="14.8488" x2="4.75726" y2="14.8488" gradientUnits="userSpaceOnUse">
<stop stop-color="#83A6FF"/>
<stop offset="1" stop-color="#5A78FF"/>
</linearGradient>
<linearGradient id="paint1_linear" x1="1.8378" y1="87.4018" x2="4.91877" y2="87.4018" gradientUnits="userSpaceOnUse">
<stop stop-color="#FF66A9"/>
<stop offset="1" stop-color="#F53689"/>
</linearGradient>
<linearGradient id="paint2_linear" x1="96.9304" y1="17.0849" x2="99.824" y2="17.0849" gradientUnits="userSpaceOnUse">
<stop stop-color="#83A6FF"/>
<stop offset="1" stop-color="#5A78FF"/>
</linearGradient>
<linearGradient id="paint3_linear" x1="39.4844" y1="57.6989" x2="69.5718" y2="57.6989" gradientUnits="userSpaceOnUse">
<stop stop-color="#CED7E2"/>
<stop offset="1" stop-color="#E6ECF5"/>
</linearGradient>
<linearGradient id="paint4_linear" x1="39.4844" y1="64.2034" x2="53.0386" y2="64.2034" gradientUnits="userSpaceOnUse">
<stop stop-color="#CED7E2"/>
<stop offset="1" stop-color="#E6ECF5"/>
</linearGradient>
<linearGradient id="paint5_linear" x1="48.4371" y1="33.6831" x2="52.7287" y2="33.6831" gradientUnits="userSpaceOnUse">
<stop stop-color="#83A6FF"/>
<stop offset="1" stop-color="#5A78FF"/>
</linearGradient>
<linearGradient id="paint6_linear" x1="15.3115" y1="9.49555" x2="63.0194" y2="9.49555" gradientUnits="userSpaceOnUse">
<stop stop-color="#FF66A9"/>
<stop offset="1" stop-color="#F53689"/>
</linearGradient>
<linearGradient id="paint7_linear" x1="61.2811" y1="84.3896" x2="102.828" y2="84.3896" gradientUnits="userSpaceOnUse">
<stop stop-color="#83A6FF"/>
<stop offset="1" stop-color="#5A78FF"/>
</linearGradient>
<linearGradient id="paint8_linear" x1="59.2197" y1="70.7371" x2="104.918" y2="70.7371" gradientUnits="userSpaceOnUse">
<stop stop-color="#83A6FF"/>
<stop offset="1" stop-color="#5A78FF"/>
</linearGradient>
<linearGradient id="paint9_linear" x1="70.2541" y1="89.368" x2="70.2541" y2="78.6301" gradientUnits="userSpaceOnUse">
<stop stop-color="#BDCFFF"/>
<stop offset="1" stop-color="#91A5FF" stop-opacity="0.5"/>
</linearGradient>
<linearGradient id="paint10_linear" x1="75.9237" y1="89.3677" x2="75.9237" y2="78.6298" gradientUnits="userSpaceOnUse">
<stop stop-color="#BDCFFF"/>
<stop offset="1" stop-color="#91A5FF" stop-opacity="0.5"/>
</linearGradient>
<linearGradient id="paint11_linear" x1="82.0557" y1="89.3676" x2="82.0557" y2="78.6297" gradientUnits="userSpaceOnUse">
<stop stop-color="#BDCFFF"/>
<stop offset="1" stop-color="#91A5FF" stop-opacity="0.5"/>
</linearGradient>
<linearGradient id="paint12_linear" x1="88.1886" y1="89.3676" x2="88.1886" y2="78.6297" gradientUnits="userSpaceOnUse">
<stop stop-color="#BDCFFF"/>
<stop offset="1" stop-color="#91A5FF" stop-opacity="0.5"/>
</linearGradient>
<linearGradient id="paint13_linear" x1="93.8591" y1="89.3678" x2="93.8591" y2="78.6299" gradientUnits="userSpaceOnUse">
<stop stop-color="#BDCFFF"/>
<stop offset="1" stop-color="#91A5FF" stop-opacity="0.5"/>
</linearGradient>
<linearGradient id="paint14_linear" x1="39.1686" y1="8.35524" x2="39.1686" y2="2.04348" gradientUnits="userSpaceOnUse">
<stop offset="0.00289017" stop-color="#3F5073" stop-opacity="0"/>
<stop offset="1" stop-color="#283247"/>
</linearGradient>
</defs>
</svg>
