<svg width="84" height="52" viewBox="0 0 84 52" fill="none" xmlns="http://www.w3.org/2000/svg">
<path d="M57.7554 8.98772H57.5391C50.4591 8.98772 43.3789 8.98772 36.2984 8.98772C34.9769 8.98772 33.9376 9.53028 33.2918 10.7169C32.6145 11.9652 32.6744 14.0613 33.7703 15.2006C34.4643 15.9212 35.3289 16.2166 36.3001 16.2191C39.8292 16.2274 43.36 16.1692 46.8884 16.2408C49.275 16.2899 51.2247 17.3034 52.5279 19.3705C53.0962 20.2717 53.3542 21.2844 53.4149 22.3463C53.4882 23.6236 53.3317 24.8602 52.7792 26.0327C52.071 27.5356 50.8744 28.4859 49.3673 29.0884C48.4999 29.4264 47.5754 29.5939 46.6445 29.5818C39.6894 29.5818 32.734 29.5799 25.7783 29.576C25.5745 29.576 25.5012 29.6342 25.4538 29.8323C24.7673 32.6849 22.5022 34.7528 19.5971 35.1897C15.8724 35.7497 12.2875 33.1393 11.6709 29.4179C11.1291 26.1525 12.8359 23.0286 15.8657 21.7271C19.1428 20.3208 23.0589 21.6672 24.7548 24.8061C25.0161 25.2896 25.1925 25.8205 25.3847 26.3373C25.4405 26.4862 25.4921 26.5411 25.6535 26.5403C27.1372 26.5336 28.6218 26.5403 30.1055 26.5403C35.7364 26.5403 41.3673 26.5384 46.9982 26.5345C48.2015 26.5345 49.1968 26.0626 49.8533 25.0108C50.2935 24.3043 50.42 23.5204 50.3801 22.6991C50.3443 21.946 50.1304 21.2503 49.6811 20.6453C48.9679 19.695 47.9826 19.3056 46.8218 19.3056C43.3617 19.3056 39.9016 19.3147 36.4415 19.3006C34.828 19.2939 33.3468 18.8354 32.0877 17.8027C30.8643 16.8263 30.0766 15.4057 29.8967 13.8508C29.7519 12.7191 29.761 11.5915 30.0839 10.4922C30.5649 8.85291 31.5743 7.6155 33.0721 6.79417C34.1256 6.22419 35.3071 5.93288 36.5048 5.94787C43.4466 5.94787 50.3881 5.94787 57.3294 5.94787C57.5149 5.94787 57.579 5.90376 57.6231 5.71154C58.2572 2.91301 59.9398 1.05148 62.6993 0.262605C66.2367 -0.74846 69.9714 1.2487 71.1814 4.7296C71.4939 5.62737 71.6218 6.57906 71.5573 7.52749C71.4928 8.47593 71.2373 9.40154 70.8061 10.2487C70.3748 11.0959 69.7768 11.8472 69.048 12.4575C68.3191 13.0678 67.4744 13.5244 66.5646 13.8001C62.8906 14.9093 59.0045 12.8622 57.8195 9.19409C57.8004 9.13251 57.7821 9.07093 57.7554 8.98772ZM18.606 32.2497C19.1355 32.2494 19.6597 32.1447 20.1487 31.9417C20.6377 31.7387 21.0819 31.4414 21.4559 31.0667C21.8299 30.6919 22.1264 30.2472 22.3285 29.7578C22.5306 29.2684 22.6343 28.744 22.6336 28.2146C22.6336 26.0061 20.822 24.1728 18.616 24.1861C17.5467 24.1848 16.5207 24.6083 15.7636 25.3635C15.0066 26.1187 14.5806 27.1436 14.5792 28.2129C14.5779 29.2822 15.0014 30.3082 15.7566 31.0653C16.5117 31.8223 17.5367 32.2484 18.606 32.2497ZM64.5267 3.02369C62.3198 3.02369 60.5065 4.82779 60.5065 7.01801C60.5006 7.81537 60.7317 8.59651 61.1704 9.26233C61.6092 9.92814 62.2358 10.4486 62.9709 10.7577C63.7059 11.0667 64.5162 11.1505 65.2989 10.9983C66.0816 10.846 66.8015 10.4647 67.3671 9.90272C67.9328 9.3407 68.3187 8.62332 68.476 7.8416C68.6332 7.05989 68.5547 6.24907 68.2504 5.51206C67.946 4.77504 67.4296 4.14504 66.7667 3.70201C66.1037 3.25898 65.324 3.02288 64.5267 3.02369Z" fill="white"/>
<path d="M38.3107 44.271V51.7271H35.8608V40.2392H36.0739C36.6697 40.2392 37.2663 40.2434 37.8622 40.2392C37.9267 40.2346 37.9913 40.2468 38.0496 40.2747C38.108 40.3025 38.1581 40.3451 38.195 40.3982C39.4333 41.9543 40.6746 43.5077 41.9189 45.0582L42.0021 45.1614C42.236 44.8718 42.4656 44.5906 42.6928 44.3076C43.7435 42.9928 44.7954 41.6786 45.8483 40.3649C45.8969 40.3015 45.9682 40.2595 46.0472 40.2476C46.7337 40.2409 47.4203 40.2476 48.106 40.2476C48.1184 40.2476 48.1309 40.2576 48.1542 40.2684V51.7304H45.6894V44.2802L45.6436 44.2594L42.0013 48.7888L38.3548 44.2535L38.3107 44.271Z" fill="white"/>
<path d="M62.0327 40.2393C62.7592 40.2393 63.459 40.2393 64.1589 40.2451C64.2367 40.2622 64.3052 40.3083 64.3503 40.3741C66.1189 42.6314 67.8858 44.8904 69.6511 47.1511C69.6927 47.2052 69.7343 47.2568 69.8175 47.3525V40.2534H72.2823V51.7313C72.2166 51.7363 72.1442 51.7454 72.071 51.7454C71.4751 51.7454 70.8785 51.7404 70.2827 51.7504C70.2149 51.7537 70.1474 51.739 70.087 51.7079C70.0267 51.6768 69.9756 51.6303 69.939 51.5732C68.1892 49.3269 66.4367 47.0829 64.6815 44.8411C64.6398 44.7878 64.5941 44.7379 64.5092 44.638V44.9251C64.5092 47.1162 64.5092 49.3072 64.5134 51.4991C64.5134 51.7005 64.4584 51.7554 64.2587 51.7488C63.593 51.7371 62.9273 51.7488 62.2616 51.7438C62.1867 51.7438 62.1126 51.7379 62.0335 51.7338L62.0327 40.2393Z" fill="white"/>
<path d="M33.1363 42.2877L31.5352 43.888C31.1192 43.5501 30.7397 43.169 30.2953 42.8894C29.8268 42.5863 29.2956 42.3936 28.7417 42.3259C28.1879 42.2581 27.6259 42.3169 27.0981 42.4981C26.5703 42.6792 26.0906 42.9778 25.695 43.3713C25.2995 43.7649 24.9985 44.2432 24.8148 44.7701C24.0334 46.9611 25.4946 49.3469 27.8022 49.6398C28.8316 49.7705 29.7844 49.5649 30.6373 48.9524C30.7019 48.9139 30.7545 48.8581 30.7894 48.7914C30.8242 48.7247 30.8398 48.6497 30.8346 48.5746C30.8204 48.1885 30.8304 47.8016 30.8304 47.3922H28.2241V45.4266H33.3002C33.3002 45.4957 33.3094 45.5631 33.3094 45.6305C33.3094 46.9478 33.3135 48.2651 33.3036 49.5824C33.2975 49.7096 33.2475 49.8308 33.1621 49.9252C32.1093 51.0375 30.7042 51.7514 29.1851 51.946C27.6661 52.1406 26.1264 51.8039 24.8273 50.9929C23.2886 50.0268 22.3658 48.6138 22.1136 46.8088C21.6742 43.6708 23.7197 40.9005 26.6705 40.2024C29.1278 39.6199 31.2615 40.234 32.9948 42.1163C33.0464 42.1712 33.0914 42.2328 33.1363 42.2877Z" fill="white"/>
<path d="M0.0199923 51.826V49.4677H6.67721C7.15153 49.4677 7.41782 49.273 7.54015 48.8178C7.63085 48.4952 7.62419 48.153 7.52101 47.8342C7.38038 47.4006 7.12823 47.2142 6.67554 47.2126C6.03811 47.2126 5.39985 47.2126 4.76159 47.2126C4.17243 47.2126 3.58327 47.2184 2.99327 47.2126C1.89733 47.1984 1.06601 46.7133 0.517619 45.7671C-0.264604 44.4174 -0.148102 42.4194 0.78474 41.2477C1.03689 40.9142 1.36435 40.645 1.74037 40.4622C2.11638 40.2794 2.53031 40.1882 2.94833 40.1959C5.08475 40.1925 7.2206 40.1925 9.3559 40.1959H9.61304V42.565H9.36339C7.26887 42.565 5.17517 42.5808 3.08065 42.5567C2.33171 42.5475 2.12034 42.9445 2.04878 43.4629C1.99186 43.7864 2.04059 44.1196 2.18775 44.4132C2.24695 44.5397 2.34238 44.6457 2.46194 44.7179C2.5815 44.79 2.7198 44.825 2.85929 44.8185C4.03096 44.8185 5.2043 44.8509 6.3743 44.8085C8.02945 44.7486 9.28018 45.8753 9.54564 47.4972C9.71207 48.5199 9.6405 49.521 9.09627 50.433C8.5637 51.3259 7.76483 51.826 6.72048 51.836C4.52277 51.856 2.32422 51.8418 0.126508 51.8418C0.101543 51.8385 0.0749143 51.8327 0.0199923 51.826Z" fill="white"/>
<path d="M59.6445 40.2544V42.5478H53.5947V44.7572H58.3313V46.974H53.5947V49.423H59.7993V51.7339H51.1216V40.2544H59.6445Z" fill="white"/>
<path d="M12.2227 40.2485H20.7364V42.5444H14.6892V44.7538H19.4141V46.9723H14.6892V49.4305H20.902V51.7339H12.2227V40.2485Z" fill="white"/>
<path d="M77.3944 42.5519H74.1057V40.2568H83.1138V42.5519H79.8467V51.733H77.3944V42.5519Z" fill="white"/>
</svg>
